<svg width="800" height="600" viewBox="0 0 800 600" xmlns="http://www.w3.org/2000/svg">
  <defs>
    <!-- Sky Gradient -->
    <linearGradient id="skyGradient" x1="0%" y1="0%" x2="0%" y2="100%">
      <stop offset="0%" stop-color="#0f0c29" />
      <stop offset="50%" stop-color="#302b63" />
      <stop offset="100%" stop-color="#24243e" />
    </linearGradient>

    <!-- Retro Grid Pattern -->
    <pattern id="gridPattern" width="40" height="20" patternUnits="userSpaceOnUse" patternTransform="rotate(0)">
       <path d="M 40 0 L 0 0 0 20" fill="none" stroke="magenta" stroke-width="0.5" opacity="0.2"/>
    </pattern>

    <!-- Floor Glow -->
    <radialGradient id="floorGlow" cx="50%" cy="100%" r="80%">
        <stop offset="0%" stop-color="#ff00cc" stop-opacity="0.15" />
        <stop offset="100%" stop-color="transparent" />
    </radialGradient>
    
    
        <linearGradient id="gradLeft-happy" x1="0%" y1="0%" x2="100%" y2="100%">
            <stop offset="0%" stop-color="#FFD700" stop-opacity="0.8"/>
            <stop offset="100%" stop-color="#050510" stop-opacity="0.9"/>
        </linearGradient>
        <linearGradient id="gradRight-happy" x1="0%" y1="0%" x2="0%" y2="100%">
            <stop offset="0%" stop-color="#FFD700" stop-opacity="0.6"/>
            <stop offset="100%" stop-color="#0b0b1a" stop-opacity="0.8"/>
        </linearGradient>
    

        <linearGradient id="gradLeft-focused" x1="0%" y1="0%" x2="100%" y2="100%">
            <stop offset="0%" stop-color="#00FF94" stop-opacity="0.8"/>
            <stop offset="100%" stop-color="#050510" stop-opacity="0.9"/>
        </linearGradient>
        <linearGradient id="gradRight-focused" x1="0%" y1="0%" x2="0%" y2="100%">
            <stop offset="0%" stop-color="#00FF94" stop-opacity="0.6"/>
            <stop offset="100%" stop-color="#0b0b1a" stop-opacity="0.8"/>
        </linearGradient>
    

        <linearGradient id="gradLeft-calm" x1="0%" y1="0%" x2="100%" y2="100%">
            <stop offset="0%" stop-color="#00C2FF" stop-opacity="0.8"/>
            <stop offset="100%" stop-color="#050510" stop-opacity="0.9"/>
        </linearGradient>
        <linearGradient id="gradRight-calm" x1="0%" y1="0%" x2="0%" y2="100%">
            <stop offset="0%" stop-color="#00C2FF" stop-opacity="0.6"/>
            <stop offset="100%" stop-color="#0b0b1a" stop-opacity="0.8"/>
        </linearGradient>
    

        <linearGradient id="gradLeft-stressed" x1="0%" y1="0%" x2="100%" y2="100%">
            <stop offset="0%" stop-color="#FF2A6D" stop-opacity="0.8"/>
            <stop offset="100%" stop-color="#050510" stop-opacity="0.9"/>
        </linearGradient>
        <linearGradient id="gradRight-stressed" x1="0%" y1="0%" x2="0%" y2="100%">
            <stop offset="0%" stop-color="#FF2A6D" stop-opacity="0.6"/>
            <stop offset="100%" stop-color="#0b0b1a" stop-opacity="0.8"/>
        </linearGradient>
    

        <linearGradient id="gradLeft-energetic" x1="0%" y1="0%" x2="100%" y2="100%">
            <stop offset="0%" stop-color="#D300C5" stop-opacity="0.8"/>
            <stop offset="100%" stop-color="#050510" stop-opacity="0.9"/>
        </linearGradient>
        <linearGradient id="gradRight-energetic" x1="0%" y1="0%" x2="0%" y2="100%">
            <stop offset="0%" stop-color="#D300C5" stop-opacity="0.6"/>
            <stop offset="100%" stop-color="#0b0b1a" stop-opacity="0.8"/>
        </linearGradient>
    
  </defs>

  <!-- Background -->
  <rect width="100%" height="100%" fill="url(#skyGradient)" />
  
  <!-- Stars -->
  <circle cx="614.7692548594948" cy="19.12293753416847" r="1.052799310454851" fill="white" opacity="0.3828093855612238"/><circle cx="780.4420634870562" cy="26.35515158969607" r="1.1791484595095465" fill="white" opacity="0.2575035814291735"/><circle cx="733.1511863710363" cy="19.048089363590453" r="0.45923203144170777" fill="white" opacity="0.8341887697588022"/><circle cx="338.51346661982865" cy="101.33312464415562" r="1.4622067570335227" fill="white" opacity="0.6301022846270321"/><circle cx="352.06691340402756" cy="315.1912820328933" r="1.457167519418376" fill="white" opacity="0.21902073943782696"/><circle cx="563.7808281137729" cy="156.2816714905913" r="0.5038056774242768" fill="white" opacity="0.4292129684351169"/><circle cx="385.86037285103384" cy="18.298807003155712" r="0.5260359382277338" fill="white" opacity="0.28947938926028005"/><circle cx="673.8544242451102" cy="301.3473971852238" r="0.5851320880281458" fill="white" opacity="0.8824302985476469"/><circle cx="615.814426247343" cy="95.33280671116059" r="0.9399674804993424" fill="white" opacity="0.6736790313576355"/><circle cx="353.4395683618074" cy="275.9883684405528" r="0.13741289974877868" fill="white" opacity="0.6255273162740311"/><circle cx="496.0676349417579" cy="210.35130507037388" r="0.21854642293932158" fill="white" opacity="0.8306169977771676"/><circle cx="521.5693798057086" cy="253.0949059076335" r="0.6811407886935607" fill="white" opacity="0.4781535555045888"/><circle cx="678.0096853642199" cy="68.50282735022425" r="0.3574656545578033" fill="white" opacity="0.23525633735450113"/><circle cx="205.12354396571394" cy="347.9441589617142" r="1.0460112720891255" fill="white" opacity="0.07280949842633366"/><circle cx="201.03644149492902" cy="218.36115880288673" r="0.3476614730491244" fill="white" opacity="0.1849019002530332"/><circle cx="642.085156391314" cy="59.134931744427156" r="1.137630905977245" fill="white" opacity="0.7128738604158631"/><circle cx="637.1747731178262" cy="243.22695428233243" r="0.639265007834063" fill="white" opacity="0.49787506396235504"/><circle cx="229.9826010908131" cy="41.437604585348346" r="1.2716893948879098" fill="white" opacity="0.1546076405424408"/><circle cx="79.03460556165278" cy="338.7932026365168" r="1.1081057186724628" fill="white" opacity="0.8830604180231114"/><circle cx="612.2228253235985" cy="147.9119947476454" r="1.048539536218295" fill="white" opacity="0.19962583891022723"/><circle cx="616.9557826659773" cy="90.2897949583476" r="0.3759805747194578" fill="white" opacity="0.8696776473610104"/><circle cx="352.7394229222443" cy="339.4250695414248" r="1.3476398691447922" fill="white" opacity="0.16394713397540084"/><circle cx="387.8683746231436" cy="157.71415389644332" r="0.11802239910141765" fill="white" opacity="0.33965697276555384"/><circle cx="15.120723100208266" cy="76.05244408823201" r="0.09353782350810491" fill="white" opacity="0.07491959765395584"/><circle cx="174.29677662038685" cy="271.8888286430088" r="0.2288814459122639" fill="white" opacity="0.23613749173058074"/><circle cx="615.9456127879145" cy="120.739431721508" r="0.27166803084209945" fill="white" opacity="0.7129579545053164"/><circle cx="287.4239694803414" cy="290.6847298525714" r="1.4830522670005681" fill="white" opacity="0.4537568425429437"/><circle cx="129.51980838682627" cy="319.01557794773635" r="0.9792955083845708" fill="white" opacity="0.21803837370032086"/><circle cx="58.65054213155236" cy="90.05992677230513" r="1.278910613064209" fill="white" opacity="0.9463805444741957"/><circle cx="229.4083958153193" cy="30.232043879489375" r="0.5154910766925003" fill="white" opacity="0.008868962876765307"/>

  <!-- Perspective Floor Grid (Simulated) -->
  <g transform="translate(0, 300) scale(1, 0.5)">
     <rect x="-800" y="0" width="2400" height="1200" fill="url(#gridPattern)" opacity="0.3" transform="rotate(45, 400, 0)"/>
  </g>
  
  <!-- Horizon Glow -->
  <rect x="0" y="300" width="800" height="300" fill="url(#floorGlow)" />

  <!-- City Label / Branding -->
  <g transform="translate(40, 60)">
      <text fill="cyan" font-family="Verdana, sans-serif" font-size="28" font-weight="900" style="text-shadow: 0 0 10px cyan;">STEPHEN CHENG CITY</text>
      <text y="25" fill="#ff00cc" font-family="Courier New, monospace" font-size="14" font-weight="bold" letter-spacing="2">POP: 14 // BLOCKS: 21</text>
  </g>

  <!-- The Buildings -->
  <g transform="translate(0, 50)"> 
    
            <a href="https://github.com/zintaen/gam" target="_blank">
                <g class="building" opacity="0">
                     <animate attributeName="opacity" values="0;1" dur="0.8s" begin="0s" fill="freeze" />
                     
                     <!-- Shadow (Simple Ellipse approx) -->
                     <ellipse cx="400" cy="292.8333333333333" rx="22.5" ry="12" fill="black" opacity="0.4" blur="2" />

                     <!-- Structure -->
                     <path d="M 385 197.5933333333333 l 0 95.24 l 15 7.5 l 0 -95.24 z" fill="url(#gradLeft-focused)" stroke="none" />
                     <path d="M 415 197.5933333333333 l 0 95.24 l -15 7.5 l 0 -95.24 z" fill="url(#gradRight-focused)" stroke="none" />
                     <path d="M 400 190.0933333333333 l 15 7.5 l -15 7.5 l -15 -7.5 z" fill="#E0FFF1" fill-opacity="0.9" stroke="none" />
                     
                     <!-- Glow Edge -->
                     <path d="M 385 197.5933333333333 l 0 95.24 l 15 7.5 l 0 -95.24 z" fill="none" stroke="#00FF94" stroke-width="0.5" opacity="0.5" />
                     <path d="M 415 197.5933333333333 l 0 95.24 l -15 7.5 l 0 -95.24 z" fill="none" stroke="#00FF94" stroke-width="0.5" opacity="0.5" />

                     <!-- Details -->
                     <path d="M 404 277.3333333333333 l 7 4" stroke="#E0FFF1" stroke-width="2" stroke-opacity="0.6" /><path d="M 389 279.3333333333333 l 7 -4" stroke="#E0FFF1" stroke-width="2" stroke-opacity="0.4" /><path d="M 404 267.3333333333333 l 7 4" stroke="#E0FFF1" stroke-width="2" stroke-opacity="0.6" /><path d="M 389 269.3333333333333 l 7 -4" stroke="#E0FFF1" stroke-width="2" stroke-opacity="0.4" /><path d="M 404 247.33333333333331 l 7 4" stroke="#E0FFF1" stroke-width="2" stroke-opacity="0.6" /><path d="M 389 249.33333333333331 l 7 -4" stroke="#E0FFF1" stroke-width="2" stroke-opacity="0.4" /><path d="M 404 237.33333333333331 l 7 4" stroke="#E0FFF1" stroke-width="2" stroke-opacity="0.6" /><path d="M 389 219.33333333333331 l 7 -4" stroke="#E0FFF1" stroke-width="2" stroke-opacity="0.4" /><path d="M 389 209.33333333333331 l 7 -4" stroke="#E0FFF1" stroke-width="2" stroke-opacity="0.4" />
                     

                     <!-- Tooltip -->
                     <title>gam (TypeScript) | Stars: 1</title>
                </g>
            </a>
        

            <a href="https://github.com/zintaen/repo-verse" target="_blank">
                <g class="building" opacity="0">
                     <animate attributeName="opacity" values="0;1" dur="0.8s" begin="0.05s" fill="freeze" />
                     
                     <!-- Shadow (Simple Ellipse approx) -->
                     <ellipse cx="424" cy="304.8333333333333" rx="22.5" ry="12" fill="black" opacity="0.4" blur="2" />

                     <!-- Structure -->
                     <path d="M 409 284.8333333333333 l 0 20 l 15 7.5 l 0 -20 z" fill="url(#gradLeft-focused)" stroke="none" />
                     <path d="M 439 284.8333333333333 l 0 20 l -15 7.5 l 0 -20 z" fill="url(#gradRight-focused)" stroke="none" />
                     <path d="M 424 277.3333333333333 l 15 7.5 l -15 7.5 l -15 -7.5 z" fill="#E0FFF1" fill-opacity="0.9" stroke="none" />
                     
                     <!-- Glow Edge -->
                     <path d="M 409 284.8333333333333 l 0 20 l 15 7.5 l 0 -20 z" fill="none" stroke="#00FF94" stroke-width="0.5" opacity="0.5" />
                     <path d="M 439 284.8333333333333 l 0 20 l -15 7.5 l 0 -20 z" fill="none" stroke="#00FF94" stroke-width="0.5" opacity="0.5" />

                     <!-- Details -->
                     
                     

                     <!-- Tooltip -->
                     <title>repo-verse (TypeScript) | Stars: 0</title>
                </g>
            </a>
        

            <a href="https://github.com/zintaen/claude-mem" target="_blank">
                <g class="building" opacity="0">
                     <animate attributeName="opacity" values="0;1" dur="0.8s" begin="0.1s" fill="freeze" />
                     
                     <!-- Shadow (Simple Ellipse approx) -->
                     <ellipse cx="376" cy="304.8333333333333" rx="22.5" ry="12" fill="black" opacity="0.4" blur="2" />

                     <!-- Structure -->
                     <path d="M 361 104.83333333333331 l 0 200 l 15 7.5 l 0 -200 z" fill="url(#gradLeft-energetic)" stroke="none" />
                     <path d="M 391 104.83333333333331 l 0 200 l -15 7.5 l 0 -200 z" fill="url(#gradRight-energetic)" stroke="none" />
                     <path d="M 376 97.33333333333331 l 15 7.5 l -15 7.5 l -15 -7.5 z" fill="#FAD7FA" fill-opacity="0.9" stroke="none" />
                     
                     <!-- Glow Edge -->
                     <path d="M 361 104.83333333333331 l 0 200 l 15 7.5 l 0 -200 z" fill="none" stroke="#D300C5" stroke-width="0.5" opacity="0.5" />
                     <path d="M 391 104.83333333333331 l 0 200 l -15 7.5 l 0 -200 z" fill="none" stroke="#D300C5" stroke-width="0.5" opacity="0.5" />

                     <!-- Details -->
                     <path d="M 380 289.3333333333333 l 7 4" stroke="#FAD7FA" stroke-width="2" stroke-opacity="0.6" /><path d="M 365 291.3333333333333 l 7 -4" stroke="#FAD7FA" stroke-width="2" stroke-opacity="0.4" /><path d="M 380 279.3333333333333 l 7 4" stroke="#FAD7FA" stroke-width="2" stroke-opacity="0.6" /><path d="M 380 259.3333333333333 l 7 4" stroke="#FAD7FA" stroke-width="2" stroke-opacity="0.6" /><path d="M 365 261.3333333333333 l 7 -4" stroke="#FAD7FA" stroke-width="2" stroke-opacity="0.4" /><path d="M 380 249.33333333333331 l 7 4" stroke="#FAD7FA" stroke-width="2" stroke-opacity="0.6" /><path d="M 380 239.33333333333331 l 7 4" stroke="#FAD7FA" stroke-width="2" stroke-opacity="0.6" /><path d="M 365 241.33333333333331 l 7 -4" stroke="#FAD7FA" stroke-width="2" stroke-opacity="0.4" /><path d="M 380 229.33333333333331 l 7 4" stroke="#FAD7FA" stroke-width="2" stroke-opacity="0.6" /><path d="M 365 231.33333333333331 l 7 -4" stroke="#FAD7FA" stroke-width="2" stroke-opacity="0.4" /><path d="M 365 221.33333333333331 l 7 -4" stroke="#FAD7FA" stroke-width="2" stroke-opacity="0.4" /><path d="M 380 209.33333333333331 l 7 4" stroke="#FAD7FA" stroke-width="2" stroke-opacity="0.6" /><path d="M 365 211.33333333333331 l 7 -4" stroke="#FAD7FA" stroke-width="2" stroke-opacity="0.4" /><path d="M 380 199.33333333333331 l 7 4" stroke="#FAD7FA" stroke-width="2" stroke-opacity="0.6" /><path d="M 365 201.33333333333331 l 7 -4" stroke="#FAD7FA" stroke-width="2" stroke-opacity="0.4" /><path d="M 380 189.33333333333331 l 7 4" stroke="#FAD7FA" stroke-width="2" stroke-opacity="0.6" /><path d="M 380 179.33333333333331 l 7 4" stroke="#FAD7FA" stroke-width="2" stroke-opacity="0.6" /><path d="M 365 171.33333333333331 l 7 -4" stroke="#FAD7FA" stroke-width="2" stroke-opacity="0.4" /><path d="M 380 159.33333333333331 l 7 4" stroke="#FAD7FA" stroke-width="2" stroke-opacity="0.6" /><path d="M 365 161.33333333333331 l 7 -4" stroke="#FAD7FA" stroke-width="2" stroke-opacity="0.4" /><path d="M 365 151.33333333333331 l 7 -4" stroke="#FAD7FA" stroke-width="2" stroke-opacity="0.4" /><path d="M 380 139.33333333333331 l 7 4" stroke="#FAD7FA" stroke-width="2" stroke-opacity="0.6" /><path d="M 365 141.33333333333331 l 7 -4" stroke="#FAD7FA" stroke-width="2" stroke-opacity="0.4" /><path d="M 365 131.33333333333331 l 7 -4" stroke="#FAD7FA" stroke-width="2" stroke-opacity="0.4" /><path d="M 380 119.33333333333331 l 7 4" stroke="#FAD7FA" stroke-width="2" stroke-opacity="0.6" /><path d="M 365 121.33333333333331 l 7 -4" stroke="#FAD7FA" stroke-width="2" stroke-opacity="0.4" /><path d="M 365 111.33333333333331 l 7 -4" stroke="#FAD7FA" stroke-width="2" stroke-opacity="0.4" />
                     

                     <!-- Tooltip -->
                     <title>claude-mem (null) | Stars: 0</title>
                </g>
            </a>
        

            <a href="https://github.com/zintaen/issue-hunter" target="_blank">
                <g class="building" opacity="0">
                     <animate attributeName="opacity" values="0;1" dur="0.8s" begin="0.15000000000000002s" fill="freeze" />
                     
                     <!-- Shadow (Simple Ellipse approx) -->
                     <ellipse cx="448" cy="315.5358333333333" rx="18.607499999999998" ry="9.924" fill="black" opacity="0.4" blur="2" />

                     <!-- Structure -->
                     <path d="M 435.595 295.5358333333333 l 0 20 l 12.405 6.2025 l 0 -20 z" fill="url(#gradLeft-calm)" stroke="none" />
                     <path d="M 460.405 295.5358333333333 l 0 20 l -12.405 6.2025 l 0 -20 z" fill="url(#gradRight-calm)" stroke="none" />
                     <path d="M 448 289.3333333333333 l 12.405 6.2025 l -12.405 6.2025 l -12.405 -6.2025 z" fill="#D1F4FF" fill-opacity="0.9" stroke="none" />
                     
                     <!-- Glow Edge -->
                     <path d="M 435.595 295.5358333333333 l 0 20 l 12.405 6.2025 l 0 -20 z" fill="none" stroke="#00C2FF" stroke-width="0.5" opacity="0.5" />
                     <path d="M 460.405 295.5358333333333 l 0 20 l -12.405 6.2025 l 0 -20 z" fill="none" stroke="#00C2FF" stroke-width="0.5" opacity="0.5" />

                     <!-- Details -->
                     
                     

                     <!-- Tooltip -->
                     <title>issue-hunter (Python) | Stars: 0</title>
                </g>
            </a>
        

            <a href="https://github.com/zintaen/huashu-design" target="_blank">
                <g class="building" opacity="0">
                     <animate attributeName="opacity" values="0;1" dur="0.8s" begin="0.2s" fill="freeze" />
                     
                     <!-- Shadow (Simple Ellipse approx) -->
                     <ellipse cx="400" cy="316.8333333333333" rx="22.5" ry="12" fill="black" opacity="0.4" blur="2" />

                     <!-- Structure -->
                     <path d="M 385 116.83333333333331 l 0 200 l 15 7.5 l 0 -200 z" fill="url(#gradLeft-energetic)" stroke="none" />
                     <path d="M 415 116.83333333333331 l 0 200 l -15 7.5 l 0 -200 z" fill="url(#gradRight-energetic)" stroke="none" />
                     <path d="M 400 109.33333333333331 l 15 7.5 l -15 7.5 l -15 -7.5 z" fill="#FAD7FA" fill-opacity="0.9" stroke="none" />
                     
                     <!-- Glow Edge -->
                     <path d="M 385 116.83333333333331 l 0 200 l 15 7.5 l 0 -200 z" fill="none" stroke="#D300C5" stroke-width="0.5" opacity="0.5" />
                     <path d="M 415 116.83333333333331 l 0 200 l -15 7.5 l 0 -200 z" fill="none" stroke="#D300C5" stroke-width="0.5" opacity="0.5" />

                     <!-- Details -->
                     <path d="M 404 301.3333333333333 l 7 4" stroke="#FAD7FA" stroke-width="2" stroke-opacity="0.6" /><path d="M 389 303.3333333333333 l 7 -4" stroke="#FAD7FA" stroke-width="2" stroke-opacity="0.4" /><path d="M 404 291.3333333333333 l 7 4" stroke="#FAD7FA" stroke-width="2" stroke-opacity="0.6" /><path d="M 389 293.3333333333333 l 7 -4" stroke="#FAD7FA" stroke-width="2" stroke-opacity="0.4" /><path d="M 389 283.3333333333333 l 7 -4" stroke="#FAD7FA" stroke-width="2" stroke-opacity="0.4" /><path d="M 389 273.3333333333333 l 7 -4" stroke="#FAD7FA" stroke-width="2" stroke-opacity="0.4" /><path d="M 389 263.3333333333333 l 7 -4" stroke="#FAD7FA" stroke-width="2" stroke-opacity="0.4" /><path d="M 404 251.33333333333331 l 7 4" stroke="#FAD7FA" stroke-width="2" stroke-opacity="0.6" /><path d="M 389 253.33333333333331 l 7 -4" stroke="#FAD7FA" stroke-width="2" stroke-opacity="0.4" /><path d="M 404 241.33333333333331 l 7 4" stroke="#FAD7FA" stroke-width="2" stroke-opacity="0.6" /><path d="M 389 243.33333333333331 l 7 -4" stroke="#FAD7FA" stroke-width="2" stroke-opacity="0.4" /><path d="M 404 231.33333333333331 l 7 4" stroke="#FAD7FA" stroke-width="2" stroke-opacity="0.6" /><path d="M 404 221.33333333333331 l 7 4" stroke="#FAD7FA" stroke-width="2" stroke-opacity="0.6" /><path d="M 389 223.33333333333331 l 7 -4" stroke="#FAD7FA" stroke-width="2" stroke-opacity="0.4" /><path d="M 389 213.33333333333331 l 7 -4" stroke="#FAD7FA" stroke-width="2" stroke-opacity="0.4" /><path d="M 404 201.33333333333331 l 7 4" stroke="#FAD7FA" stroke-width="2" stroke-opacity="0.6" /><path d="M 389 203.33333333333331 l 7 -4" stroke="#FAD7FA" stroke-width="2" stroke-opacity="0.4" /><path d="M 389 193.33333333333331 l 7 -4" stroke="#FAD7FA" stroke-width="2" stroke-opacity="0.4" /><path d="M 404 181.33333333333331 l 7 4" stroke="#FAD7FA" stroke-width="2" stroke-opacity="0.6" /><path d="M 389 173.33333333333331 l 7 -4" stroke="#FAD7FA" stroke-width="2" stroke-opacity="0.4" /><path d="M 404 161.33333333333331 l 7 4" stroke="#FAD7FA" stroke-width="2" stroke-opacity="0.6" /><path d="M 404 151.33333333333331 l 7 4" stroke="#FAD7FA" stroke-width="2" stroke-opacity="0.6" /><path d="M 389 153.33333333333331 l 7 -4" stroke="#FAD7FA" stroke-width="2" stroke-opacity="0.4" /><path d="M 404 141.33333333333331 l 7 4" stroke="#FAD7FA" stroke-width="2" stroke-opacity="0.6" /><path d="M 404 131.33333333333331 l 7 4" stroke="#FAD7FA" stroke-width="2" stroke-opacity="0.6" /><path d="M 389 133.33333333333331 l 7 -4" stroke="#FAD7FA" stroke-width="2" stroke-opacity="0.4" /><path d="M 404 121.33333333333331 l 7 4" stroke="#FAD7FA" stroke-width="2" stroke-opacity="0.6" />
                     

                     <!-- Tooltip -->
                     <title>huashu-design (null) | Stars: 0</title>
                </g>
            </a>
        

            <a href="https://github.com/zintaen/chalk" target="_blank">
                <g class="building" opacity="0">
                     <animate attributeName="opacity" values="0;1" dur="0.8s" begin="0.25s" fill="freeze" />
                     
                     <!-- Shadow (Simple Ellipse approx) -->
                     <ellipse cx="352" cy="316.8333333333333" rx="22.5" ry="12" fill="black" opacity="0.4" blur="2" />

                     <!-- Structure -->
                     <path d="M 337 295.49333333333334 l 0 21.34 l 15 7.5 l 0 -21.34 z" fill="url(#gradLeft-energetic)" stroke="none" />
                     <path d="M 367 295.49333333333334 l 0 21.34 l -15 7.5 l 0 -21.34 z" fill="url(#gradRight-energetic)" stroke="none" />
                     <path d="M 352 287.99333333333334 l 15 7.5 l -15 7.5 l -15 -7.5 z" fill="#FAD7FA" fill-opacity="0.9" stroke="none" />
                     
                     <!-- Glow Edge -->
                     <path d="M 337 295.49333333333334 l 0 21.34 l 15 7.5 l 0 -21.34 z" fill="none" stroke="#D300C5" stroke-width="0.5" opacity="0.5" />
                     <path d="M 367 295.49333333333334 l 0 21.34 l -15 7.5 l 0 -21.34 z" fill="none" stroke="#D300C5" stroke-width="0.5" opacity="0.5" />

                     <!-- Details -->
                     
                     

                     <!-- Tooltip -->
                     <title>chalk (null) | Stars: 0</title>
                </g>
            </a>
        

            <a href="https://github.com/zintaen/harper" target="_blank">
                <g class="building" opacity="0">
                     <animate attributeName="opacity" values="0;1" dur="0.8s" begin="0.30000000000000004s" fill="freeze" />
                     
                     <!-- Shadow (Simple Ellipse approx) -->
                     <ellipse cx="472" cy="328.8333333333333" rx="22.5" ry="12" fill="black" opacity="0.4" blur="2" />

                     <!-- Structure -->
                     <path d="M 457 128.83333333333331 l 0 200 l 15 7.5 l 0 -200 z" fill="url(#gradLeft-energetic)" stroke="none" />
                     <path d="M 487 128.83333333333331 l 0 200 l -15 7.5 l 0 -200 z" fill="url(#gradRight-energetic)" stroke="none" />
                     <path d="M 472 121.33333333333331 l 15 7.5 l -15 7.5 l -15 -7.5 z" fill="#FAD7FA" fill-opacity="0.9" stroke="none" />
                     
                     <!-- Glow Edge -->
                     <path d="M 457 128.83333333333331 l 0 200 l 15 7.5 l 0 -200 z" fill="none" stroke="#D300C5" stroke-width="0.5" opacity="0.5" />
                     <path d="M 487 128.83333333333331 l 0 200 l -15 7.5 l 0 -200 z" fill="none" stroke="#D300C5" stroke-width="0.5" opacity="0.5" />

                     <!-- Details -->
                     <path d="M 476 313.3333333333333 l 7 4" stroke="#FAD7FA" stroke-width="2" stroke-opacity="0.6" /><path d="M 461 315.3333333333333 l 7 -4" stroke="#FAD7FA" stroke-width="2" stroke-opacity="0.4" /><path d="M 476 303.3333333333333 l 7 4" stroke="#FAD7FA" stroke-width="2" stroke-opacity="0.6" /><path d="M 461 305.3333333333333 l 7 -4" stroke="#FAD7FA" stroke-width="2" stroke-opacity="0.4" /><path d="M 476 293.3333333333333 l 7 4" stroke="#FAD7FA" stroke-width="2" stroke-opacity="0.6" /><path d="M 461 295.3333333333333 l 7 -4" stroke="#FAD7FA" stroke-width="2" stroke-opacity="0.4" /><path d="M 476 283.3333333333333 l 7 4" stroke="#FAD7FA" stroke-width="2" stroke-opacity="0.6" /><path d="M 461 285.3333333333333 l 7 -4" stroke="#FAD7FA" stroke-width="2" stroke-opacity="0.4" /><path d="M 476 273.3333333333333 l 7 4" stroke="#FAD7FA" stroke-width="2" stroke-opacity="0.6" /><path d="M 461 275.3333333333333 l 7 -4" stroke="#FAD7FA" stroke-width="2" stroke-opacity="0.4" /><path d="M 476 263.3333333333333 l 7 4" stroke="#FAD7FA" stroke-width="2" stroke-opacity="0.6" /><path d="M 461 265.3333333333333 l 7 -4" stroke="#FAD7FA" stroke-width="2" stroke-opacity="0.4" /><path d="M 476 253.33333333333331 l 7 4" stroke="#FAD7FA" stroke-width="2" stroke-opacity="0.6" /><path d="M 476 243.33333333333331 l 7 4" stroke="#FAD7FA" stroke-width="2" stroke-opacity="0.6" /><path d="M 461 245.33333333333331 l 7 -4" stroke="#FAD7FA" stroke-width="2" stroke-opacity="0.4" /><path d="M 461 235.33333333333331 l 7 -4" stroke="#FAD7FA" stroke-width="2" stroke-opacity="0.4" /><path d="M 476 223.33333333333331 l 7 4" stroke="#FAD7FA" stroke-width="2" stroke-opacity="0.6" /><path d="M 461 225.33333333333331 l 7 -4" stroke="#FAD7FA" stroke-width="2" stroke-opacity="0.4" /><path d="M 461 215.33333333333331 l 7 -4" stroke="#FAD7FA" stroke-width="2" stroke-opacity="0.4" /><path d="M 476 193.33333333333331 l 7 4" stroke="#FAD7FA" stroke-width="2" stroke-opacity="0.6" /><path d="M 476 173.33333333333331 l 7 4" stroke="#FAD7FA" stroke-width="2" stroke-opacity="0.6" /><path d="M 461 175.33333333333331 l 7 -4" stroke="#FAD7FA" stroke-width="2" stroke-opacity="0.4" /><path d="M 476 153.33333333333331 l 7 4" stroke="#FAD7FA" stroke-width="2" stroke-opacity="0.6" /><path d="M 461 145.33333333333331 l 7 -4" stroke="#FAD7FA" stroke-width="2" stroke-opacity="0.4" />
                     

                     <!-- Tooltip -->
                     <title>harper (null) | Stars: 0</title>
                </g>
            </a>
        

            <a href="https://github.com/zintaen/E2B" target="_blank">
                <g class="building" opacity="0">
                     <animate attributeName="opacity" values="0;1" dur="0.8s" begin="0.35000000000000003s" fill="freeze" />
                     
                     <!-- Shadow (Simple Ellipse approx) -->
                     <ellipse cx="424" cy="328.8333333333333" rx="22.5" ry="12" fill="black" opacity="0.4" blur="2" />

                     <!-- Structure -->
                     <path d="M 409 128.83333333333331 l 0 200 l 15 7.5 l 0 -200 z" fill="url(#gradLeft-energetic)" stroke="none" />
                     <path d="M 439 128.83333333333331 l 0 200 l -15 7.5 l 0 -200 z" fill="url(#gradRight-energetic)" stroke="none" />
                     <path d="M 424 121.33333333333331 l 15 7.5 l -15 7.5 l -15 -7.5 z" fill="#FAD7FA" fill-opacity="0.9" stroke="none" />
                     
                     <!-- Glow Edge -->
                     <path d="M 409 128.83333333333331 l 0 200 l 15 7.5 l 0 -200 z" fill="none" stroke="#D300C5" stroke-width="0.5" opacity="0.5" />
                     <path d="M 439 128.83333333333331 l 0 200 l -15 7.5 l 0 -200 z" fill="none" stroke="#D300C5" stroke-width="0.5" opacity="0.5" />

                     <!-- Details -->
                     <path d="M 428 313.3333333333333 l 7 4" stroke="#FAD7FA" stroke-width="2" stroke-opacity="0.6" /><path d="M 413 315.3333333333333 l 7 -4" stroke="#FAD7FA" stroke-width="2" stroke-opacity="0.4" /><path d="M 428 293.3333333333333 l 7 4" stroke="#FAD7FA" stroke-width="2" stroke-opacity="0.6" /><path d="M 428 273.3333333333333 l 7 4" stroke="#FAD7FA" stroke-width="2" stroke-opacity="0.6" /><path d="M 413 275.3333333333333 l 7 -4" stroke="#FAD7FA" stroke-width="2" stroke-opacity="0.4" /><path d="M 413 265.3333333333333 l 7 -4" stroke="#FAD7FA" stroke-width="2" stroke-opacity="0.4" /><path d="M 428 253.33333333333331 l 7 4" stroke="#FAD7FA" stroke-width="2" stroke-opacity="0.6" /><path d="M 413 255.33333333333331 l 7 -4" stroke="#FAD7FA" stroke-width="2" stroke-opacity="0.4" /><path d="M 428 243.33333333333331 l 7 4" stroke="#FAD7FA" stroke-width="2" stroke-opacity="0.6" /><path d="M 413 245.33333333333331 l 7 -4" stroke="#FAD7FA" stroke-width="2" stroke-opacity="0.4" /><path d="M 413 235.33333333333331 l 7 -4" stroke="#FAD7FA" stroke-width="2" stroke-opacity="0.4" /><path d="M 428 223.33333333333331 l 7 4" stroke="#FAD7FA" stroke-width="2" stroke-opacity="0.6" /><path d="M 413 225.33333333333331 l 7 -4" stroke="#FAD7FA" stroke-width="2" stroke-opacity="0.4" /><path d="M 413 205.33333333333331 l 7 -4" stroke="#FAD7FA" stroke-width="2" stroke-opacity="0.4" /><path d="M 413 195.33333333333331 l 7 -4" stroke="#FAD7FA" stroke-width="2" stroke-opacity="0.4" /><path d="M 428 183.33333333333331 l 7 4" stroke="#FAD7FA" stroke-width="2" stroke-opacity="0.6" /><path d="M 413 185.33333333333331 l 7 -4" stroke="#FAD7FA" stroke-width="2" stroke-opacity="0.4" /><path d="M 413 175.33333333333331 l 7 -4" stroke="#FAD7FA" stroke-width="2" stroke-opacity="0.4" /><path d="M 428 163.33333333333331 l 7 4" stroke="#FAD7FA" stroke-width="2" stroke-opacity="0.6" /><path d="M 428 153.33333333333331 l 7 4" stroke="#FAD7FA" stroke-width="2" stroke-opacity="0.6" /><path d="M 413 155.33333333333331 l 7 -4" stroke="#FAD7FA" stroke-width="2" stroke-opacity="0.4" /><path d="M 428 143.33333333333331 l 7 4" stroke="#FAD7FA" stroke-width="2" stroke-opacity="0.6" /><path d="M 413 145.33333333333331 l 7 -4" stroke="#FAD7FA" stroke-width="2" stroke-opacity="0.4" /><path d="M 413 135.33333333333331 l 7 -4" stroke="#FAD7FA" stroke-width="2" stroke-opacity="0.4" />
                     

                     <!-- Tooltip -->
                     <title>E2B (null) | Stars: 0</title>
                </g>
            </a>
        

            <a href="https://github.com/zintaen/code-review-graph" target="_blank">
                <g class="building" opacity="0">
                     <animate attributeName="opacity" values="0;1" dur="0.8s" begin="0.4s" fill="freeze" />
                     
                     <!-- Shadow (Simple Ellipse approx) -->
                     <ellipse cx="376" cy="328.8333333333333" rx="22.5" ry="12" fill="black" opacity="0.4" blur="2" />

                     <!-- Structure -->
                     <path d="M 361 216.89333333333332 l 0 111.94 l 15 7.5 l 0 -111.94 z" fill="url(#gradLeft-energetic)" stroke="none" />
                     <path d="M 391 216.89333333333332 l 0 111.94 l -15 7.5 l 0 -111.94 z" fill="url(#gradRight-energetic)" stroke="none" />
                     <path d="M 376 209.39333333333332 l 15 7.5 l -15 7.5 l -15 -7.5 z" fill="#FAD7FA" fill-opacity="0.9" stroke="none" />
                     
                     <!-- Glow Edge -->
                     <path d="M 361 216.89333333333332 l 0 111.94 l 15 7.5 l 0 -111.94 z" fill="none" stroke="#D300C5" stroke-width="0.5" opacity="0.5" />
                     <path d="M 391 216.89333333333332 l 0 111.94 l -15 7.5 l 0 -111.94 z" fill="none" stroke="#D300C5" stroke-width="0.5" opacity="0.5" />

                     <!-- Details -->
                     <path d="M 380 313.3333333333333 l 7 4" stroke="#FAD7FA" stroke-width="2" stroke-opacity="0.6" /><path d="M 365 315.3333333333333 l 7 -4" stroke="#FAD7FA" stroke-width="2" stroke-opacity="0.4" /><path d="M 380 303.3333333333333 l 7 4" stroke="#FAD7FA" stroke-width="2" stroke-opacity="0.6" /><path d="M 365 305.3333333333333 l 7 -4" stroke="#FAD7FA" stroke-width="2" stroke-opacity="0.4" /><path d="M 365 295.3333333333333 l 7 -4" stroke="#FAD7FA" stroke-width="2" stroke-opacity="0.4" /><path d="M 380 283.3333333333333 l 7 4" stroke="#FAD7FA" stroke-width="2" stroke-opacity="0.6" /><path d="M 380 263.3333333333333 l 7 4" stroke="#FAD7FA" stroke-width="2" stroke-opacity="0.6" /><path d="M 365 265.3333333333333 l 7 -4" stroke="#FAD7FA" stroke-width="2" stroke-opacity="0.4" /><path d="M 380 253.33333333333331 l 7 4" stroke="#FAD7FA" stroke-width="2" stroke-opacity="0.6" /><path d="M 365 255.33333333333331 l 7 -4" stroke="#FAD7FA" stroke-width="2" stroke-opacity="0.4" /><path d="M 380 243.33333333333331 l 7 4" stroke="#FAD7FA" stroke-width="2" stroke-opacity="0.6" /><path d="M 365 245.33333333333331 l 7 -4" stroke="#FAD7FA" stroke-width="2" stroke-opacity="0.4" /><path d="M 380 233.33333333333331 l 7 4" stroke="#FAD7FA" stroke-width="2" stroke-opacity="0.6" /><path d="M 365 235.33333333333331 l 7 -4" stroke="#FAD7FA" stroke-width="2" stroke-opacity="0.4" /><path d="M 365 225.33333333333331 l 7 -4" stroke="#FAD7FA" stroke-width="2" stroke-opacity="0.4" />
                     

                     <!-- Tooltip -->
                     <title>code-review-graph (null) | Stars: 0</title>
                </g>
            </a>
        

            <a href="https://github.com/zintaen/EverOS" target="_blank">
                <g class="building" opacity="0">
                     <animate attributeName="opacity" values="0;1" dur="0.8s" begin="0.45s" fill="freeze" />
                     
                     <!-- Shadow (Simple Ellipse approx) -->
                     <ellipse cx="448" cy="340.8333333333333" rx="22.5" ry="12" fill="black" opacity="0.4" blur="2" />

                     <!-- Structure -->
                     <path d="M 433 140.83333333333331 l 0 200 l 15 7.5 l 0 -200 z" fill="url(#gradLeft-energetic)" stroke="none" />
                     <path d="M 463 140.83333333333331 l 0 200 l -15 7.5 l 0 -200 z" fill="url(#gradRight-energetic)" stroke="none" />
                     <path d="M 448 133.33333333333331 l 15 7.5 l -15 7.5 l -15 -7.5 z" fill="#FAD7FA" fill-opacity="0.9" stroke="none" />
                     
                     <!-- Glow Edge -->
                     <path d="M 433 140.83333333333331 l 0 200 l 15 7.5 l 0 -200 z" fill="none" stroke="#D300C5" stroke-width="0.5" opacity="0.5" />
                     <path d="M 463 140.83333333333331 l 0 200 l -15 7.5 l 0 -200 z" fill="none" stroke="#D300C5" stroke-width="0.5" opacity="0.5" />

                     <!-- Details -->
                     <path d="M 452 315.3333333333333 l 7 4" stroke="#FAD7FA" stroke-width="2" stroke-opacity="0.6" /><path d="M 437 307.3333333333333 l 7 -4" stroke="#FAD7FA" stroke-width="2" stroke-opacity="0.4" /><path d="M 452 295.3333333333333 l 7 4" stroke="#FAD7FA" stroke-width="2" stroke-opacity="0.6" /><path d="M 452 285.3333333333333 l 7 4" stroke="#FAD7FA" stroke-width="2" stroke-opacity="0.6" /><path d="M 437 287.3333333333333 l 7 -4" stroke="#FAD7FA" stroke-width="2" stroke-opacity="0.4" /><path d="M 452 275.3333333333333 l 7 4" stroke="#FAD7FA" stroke-width="2" stroke-opacity="0.6" /><path d="M 437 277.3333333333333 l 7 -4" stroke="#FAD7FA" stroke-width="2" stroke-opacity="0.4" /><path d="M 452 265.3333333333333 l 7 4" stroke="#FAD7FA" stroke-width="2" stroke-opacity="0.6" /><path d="M 437 267.3333333333333 l 7 -4" stroke="#FAD7FA" stroke-width="2" stroke-opacity="0.4" /><path d="M 452 255.33333333333331 l 7 4" stroke="#FAD7FA" stroke-width="2" stroke-opacity="0.6" /><path d="M 437 257.3333333333333 l 7 -4" stroke="#FAD7FA" stroke-width="2" stroke-opacity="0.4" /><path d="M 452 245.33333333333331 l 7 4" stroke="#FAD7FA" stroke-width="2" stroke-opacity="0.6" /><path d="M 452 235.33333333333331 l 7 4" stroke="#FAD7FA" stroke-width="2" stroke-opacity="0.6" /><path d="M 437 237.33333333333331 l 7 -4" stroke="#FAD7FA" stroke-width="2" stroke-opacity="0.4" /><path d="M 452 225.33333333333331 l 7 4" stroke="#FAD7FA" stroke-width="2" stroke-opacity="0.6" /><path d="M 437 227.33333333333331 l 7 -4" stroke="#FAD7FA" stroke-width="2" stroke-opacity="0.4" /><path d="M 452 215.33333333333331 l 7 4" stroke="#FAD7FA" stroke-width="2" stroke-opacity="0.6" /><path d="M 437 217.33333333333331 l 7 -4" stroke="#FAD7FA" stroke-width="2" stroke-opacity="0.4" /><path d="M 437 207.33333333333331 l 7 -4" stroke="#FAD7FA" stroke-width="2" stroke-opacity="0.4" /><path d="M 452 195.33333333333331 l 7 4" stroke="#FAD7FA" stroke-width="2" stroke-opacity="0.6" /><path d="M 437 197.33333333333331 l 7 -4" stroke="#FAD7FA" stroke-width="2" stroke-opacity="0.4" /><path d="M 452 165.33333333333331 l 7 4" stroke="#FAD7FA" stroke-width="2" stroke-opacity="0.6" /><path d="M 437 167.33333333333331 l 7 -4" stroke="#FAD7FA" stroke-width="2" stroke-opacity="0.4" /><path d="M 452 155.33333333333331 l 7 4" stroke="#FAD7FA" stroke-width="2" stroke-opacity="0.6" /><path d="M 437 157.33333333333331 l 7 -4" stroke="#FAD7FA" stroke-width="2" stroke-opacity="0.4" /><path d="M 452 145.33333333333331 l 7 4" stroke="#FAD7FA" stroke-width="2" stroke-opacity="0.6" /><path d="M 437 147.33333333333331 l 7 -4" stroke="#FAD7FA" stroke-width="2" stroke-opacity="0.4" />
                     

                     <!-- Tooltip -->
                     <title>EverOS (null) | Stars: 0</title>
                </g>
            </a>
        
  </g>

  <!-- Footer -->
  <text x="770" y="580" text-anchor="end" fill="rgba(255,255,255,0.4)" font-family="Courier New" font-size="10">GENERATED BY REPOVERSE</text>
</svg>