<svg width="800" height="600" viewBox="0 0 800 600" xmlns="http://www.w3.org/2000/svg">
  <defs>
    <!-- Sky Gradient -->
    <linearGradient id="skyGradient" x1="0%" y1="0%" x2="0%" y2="100%">
      <stop offset="0%" stop-color="#0f0c29" />
      <stop offset="50%" stop-color="#302b63" />
      <stop offset="100%" stop-color="#24243e" />
    </linearGradient>

    <!-- Retro Grid Pattern -->
    <pattern id="gridPattern" width="40" height="20" patternUnits="userSpaceOnUse" patternTransform="rotate(0)">
       <path d="M 40 0 L 0 0 0 20" fill="none" stroke="magenta" stroke-width="0.5" opacity="0.2"/>
    </pattern>

    <!-- Floor Glow -->
    <radialGradient id="floorGlow" cx="50%" cy="100%" r="80%">
        <stop offset="0%" stop-color="#ff00cc" stop-opacity="0.15" />
        <stop offset="100%" stop-color="transparent" />
    </radialGradient>
    
    
        <linearGradient id="gradLeft-happy" x1="0%" y1="0%" x2="100%" y2="100%">
            <stop offset="0%" stop-color="#FFD700" stop-opacity="0.8"/>
            <stop offset="100%" stop-color="#050510" stop-opacity="0.9"/>
        </linearGradient>
        <linearGradient id="gradRight-happy" x1="0%" y1="0%" x2="0%" y2="100%">
            <stop offset="0%" stop-color="#FFD700" stop-opacity="0.6"/>
            <stop offset="100%" stop-color="#0b0b1a" stop-opacity="0.8"/>
        </linearGradient>
    

        <linearGradient id="gradLeft-focused" x1="0%" y1="0%" x2="100%" y2="100%">
            <stop offset="0%" stop-color="#00FF94" stop-opacity="0.8"/>
            <stop offset="100%" stop-color="#050510" stop-opacity="0.9"/>
        </linearGradient>
        <linearGradient id="gradRight-focused" x1="0%" y1="0%" x2="0%" y2="100%">
            <stop offset="0%" stop-color="#00FF94" stop-opacity="0.6"/>
            <stop offset="100%" stop-color="#0b0b1a" stop-opacity="0.8"/>
        </linearGradient>
    

        <linearGradient id="gradLeft-calm" x1="0%" y1="0%" x2="100%" y2="100%">
            <stop offset="0%" stop-color="#00C2FF" stop-opacity="0.8"/>
            <stop offset="100%" stop-color="#050510" stop-opacity="0.9"/>
        </linearGradient>
        <linearGradient id="gradRight-calm" x1="0%" y1="0%" x2="0%" y2="100%">
            <stop offset="0%" stop-color="#00C2FF" stop-opacity="0.6"/>
            <stop offset="100%" stop-color="#0b0b1a" stop-opacity="0.8"/>
        </linearGradient>
    

        <linearGradient id="gradLeft-stressed" x1="0%" y1="0%" x2="100%" y2="100%">
            <stop offset="0%" stop-color="#FF2A6D" stop-opacity="0.8"/>
            <stop offset="100%" stop-color="#050510" stop-opacity="0.9"/>
        </linearGradient>
        <linearGradient id="gradRight-stressed" x1="0%" y1="0%" x2="0%" y2="100%">
            <stop offset="0%" stop-color="#FF2A6D" stop-opacity="0.6"/>
            <stop offset="100%" stop-color="#0b0b1a" stop-opacity="0.8"/>
        </linearGradient>
    

        <linearGradient id="gradLeft-energetic" x1="0%" y1="0%" x2="100%" y2="100%">
            <stop offset="0%" stop-color="#D300C5" stop-opacity="0.8"/>
            <stop offset="100%" stop-color="#050510" stop-opacity="0.9"/>
        </linearGradient>
        <linearGradient id="gradRight-energetic" x1="0%" y1="0%" x2="0%" y2="100%">
            <stop offset="0%" stop-color="#D300C5" stop-opacity="0.6"/>
            <stop offset="100%" stop-color="#0b0b1a" stop-opacity="0.8"/>
        </linearGradient>
    
  </defs>

  <!-- Background -->
  <rect width="100%" height="100%" fill="url(#skyGradient)" />
  
  <!-- Stars -->
  <circle cx="759.8782047129989" cy="138.44415575473465" r="0.2059363777487676" fill="white" opacity="0.014238150300556862"/><circle cx="160.03361482512162" cy="2.2689853886511457" r="1.4164294771008688" fill="white" opacity="0.9481476557412505"/><circle cx="754.411215492552" cy="160.55760863909748" r="0.9104660322101011" fill="white" opacity="0.25935240609918964"/><circle cx="718.5330617829296" cy="126.6740365807551" r="0.24037377651688185" fill="white" opacity="0.17062024434500156"/><circle cx="28.097633397651478" cy="316.2956041396094" r="1.0614082868227586" fill="white" opacity="0.6360298353766474"/><circle cx="503.305789446676" cy="42.85307904350055" r="0.7312752779535864" fill="white" opacity="0.2563723489099823"/><circle cx="310.38449937308224" cy="29.592928732183573" r="0.7072842225353626" fill="white" opacity="0.8426611097640357"/><circle cx="571.129713137264" cy="310.0926193174996" r="0.9545648238021402" fill="white" opacity="0.17819558694708348"/><circle cx="458.3058468524911" cy="257.7119650712957" r="1.2906746820147994" fill="white" opacity="0.8494616385778726"/><circle cx="128.74929160330097" cy="26.836676557164" r="0.6785002271056239" fill="white" opacity="0.22615806443372977"/><circle cx="472.86595011877637" cy="64.70782053580106" r="0.48000703616272256" fill="white" opacity="0.5498285233803757"/><circle cx="643.2206217178681" cy="63.20174628933518" r="0.4435936807904908" fill="white" opacity="0.5664097025390604"/><circle cx="112.46785867541682" cy="52.683760298793416" r="0.4195962406881406" fill="white" opacity="0.5909333181006042"/><circle cx="16.67879430631576" cy="333.65012872769313" r="0.22626217724758002" fill="white" opacity="0.22406064835878237"/><circle cx="271.8613897442026" cy="124.12084085723723" r="1.1098948184992652" fill="white" opacity="0.5802557997601476"/><circle cx="240.2912516191668" cy="201.20899236473167" r="1.210831591861893" fill="white" opacity="0.6223243320754781"/><circle cx="735.4859093866596" cy="43.13062547950697" r="1.101505512873577" fill="white" opacity="0.5346720431519185"/><circle cx="91.60005387711401" cy="278.75191182461265" r="0.1987702808842311" fill="white" opacity="0.6406410056299889"/><circle cx="311.42357822241354" cy="226.63818171136668" r="0.8412532749045198" fill="white" opacity="0.3559641193582177"/><circle cx="730.0494421961971" cy="120.6608635735381" r="0.4197342367465545" fill="white" opacity="0.12608828496115243"/><circle cx="657.5258931342603" cy="20.82823224134879" r="0.09709342676792698" fill="white" opacity="0.6848594774769918"/><circle cx="472.01205819659083" cy="338.53270560412057" r="1.3710807959858315" fill="white" opacity="0.5256466417710837"/><circle cx="314.39400164631263" cy="236.40163232689974" r="0.9649700058097844" fill="white" opacity="0.6554646098069654"/><circle cx="763.6438336705166" cy="47.57678516939703" r="0.553689536641118" fill="white" opacity="0.8195116550495805"/><circle cx="343.1708225578319" cy="312.0945617852237" r="0.4713526146764434" fill="white" opacity="0.7777605403784327"/><circle cx="23.11950328202066" cy="39.37615276246324" r="0.8881742746629675" fill="white" opacity="0.15644855964932014"/><circle cx="275.0190643946457" cy="321.50397408887926" r="1.2185605377919702" fill="white" opacity="0.5986224051612168"/><circle cx="424.54593817537545" cy="224.72051401483924" r="1.276259200027003" fill="white" opacity="0.6319935209320593"/><circle cx="730.3292817179754" cy="243.82300879808668" r="1.4841110810809095" fill="white" opacity="0.8088035132509905"/><circle cx="614.5956959339326" cy="345.51825968108943" r="0.8582490631707942" fill="white" opacity="0.7315834595427386"/>

  <!-- Perspective Floor Grid (Simulated) -->
  <g transform="translate(0, 300) scale(1, 0.5)">
     <rect x="-800" y="0" width="2400" height="1200" fill="url(#gridPattern)" opacity="0.3" transform="rotate(45, 400, 0)"/>
  </g>
  
  <!-- Horizon Glow -->
  <rect x="0" y="300" width="800" height="300" fill="url(#floorGlow)" />

  <!-- City Label / Branding -->
  <g transform="translate(40, 60)">
      <text fill="cyan" font-family="Verdana, sans-serif" font-size="28" font-weight="900" style="text-shadow: 0 0 10px cyan;">STEPHEN CHENG CITY</text>
      <text y="25" fill="#ff00cc" font-family="Courier New, monospace" font-size="14" font-weight="bold" letter-spacing="2">POP: 14 // BLOCKS: 21</text>
  </g>

  <!-- The Buildings -->
  <g transform="translate(0, 50)"> 
    
            <a href="https://github.com/zintaen/gam" target="_blank">
                <g class="building" opacity="0">
                     <animate attributeName="opacity" values="0;1" dur="0.8s" begin="0s" fill="freeze" />
                     
                     <!-- Shadow (Simple Ellipse approx) -->
                     <ellipse cx="400" cy="292.8333333333333" rx="22.5" ry="12" fill="black" opacity="0.4" blur="2" />

                     <!-- Structure -->
                     <path d="M 385 197.5933333333333 l 0 95.24 l 15 7.5 l 0 -95.24 z" fill="url(#gradLeft-focused)" stroke="none" />
                     <path d="M 415 197.5933333333333 l 0 95.24 l -15 7.5 l 0 -95.24 z" fill="url(#gradRight-focused)" stroke="none" />
                     <path d="M 400 190.0933333333333 l 15 7.5 l -15 7.5 l -15 -7.5 z" fill="#E0FFF1" fill-opacity="0.9" stroke="none" />
                     
                     <!-- Glow Edge -->
                     <path d="M 385 197.5933333333333 l 0 95.24 l 15 7.5 l 0 -95.24 z" fill="none" stroke="#00FF94" stroke-width="0.5" opacity="0.5" />
                     <path d="M 415 197.5933333333333 l 0 95.24 l -15 7.5 l 0 -95.24 z" fill="none" stroke="#00FF94" stroke-width="0.5" opacity="0.5" />

                     <!-- Details -->
                     <path d="M 389 279.3333333333333 l 7 -4" stroke="#E0FFF1" stroke-width="2" stroke-opacity="0.4" /><path d="M 404 267.3333333333333 l 7 4" stroke="#E0FFF1" stroke-width="2" stroke-opacity="0.6" /><path d="M 389 259.3333333333333 l 7 -4" stroke="#E0FFF1" stroke-width="2" stroke-opacity="0.4" /><path d="M 404 247.33333333333331 l 7 4" stroke="#E0FFF1" stroke-width="2" stroke-opacity="0.6" /><path d="M 389 249.33333333333331 l 7 -4" stroke="#E0FFF1" stroke-width="2" stroke-opacity="0.4" /><path d="M 389 229.33333333333331 l 7 -4" stroke="#E0FFF1" stroke-width="2" stroke-opacity="0.4" /><path d="M 404 217.33333333333331 l 7 4" stroke="#E0FFF1" stroke-width="2" stroke-opacity="0.6" /><path d="M 389 209.33333333333331 l 7 -4" stroke="#E0FFF1" stroke-width="2" stroke-opacity="0.4" />
                     

                     <!-- Tooltip -->
                     <title>gam (TypeScript) | Stars: 1</title>
                </g>
            </a>
        

            <a href="https://github.com/zintaen/repo-verse" target="_blank">
                <g class="building" opacity="0">
                     <animate attributeName="opacity" values="0;1" dur="0.8s" begin="0.05s" fill="freeze" />
                     
                     <!-- Shadow (Simple Ellipse approx) -->
                     <ellipse cx="424" cy="304.8333333333333" rx="22.5" ry="12" fill="black" opacity="0.4" blur="2" />

                     <!-- Structure -->
                     <path d="M 409 284.8333333333333 l 0 20 l 15 7.5 l 0 -20 z" fill="url(#gradLeft-focused)" stroke="none" />
                     <path d="M 439 284.8333333333333 l 0 20 l -15 7.5 l 0 -20 z" fill="url(#gradRight-focused)" stroke="none" />
                     <path d="M 424 277.3333333333333 l 15 7.5 l -15 7.5 l -15 -7.5 z" fill="#E0FFF1" fill-opacity="0.9" stroke="none" />
                     
                     <!-- Glow Edge -->
                     <path d="M 409 284.8333333333333 l 0 20 l 15 7.5 l 0 -20 z" fill="none" stroke="#00FF94" stroke-width="0.5" opacity="0.5" />
                     <path d="M 439 284.8333333333333 l 0 20 l -15 7.5 l 0 -20 z" fill="none" stroke="#00FF94" stroke-width="0.5" opacity="0.5" />

                     <!-- Details -->
                     
                     

                     <!-- Tooltip -->
                     <title>repo-verse (TypeScript) | Stars: 0</title>
                </g>
            </a>
        

            <a href="https://github.com/zintaen/claude-mem" target="_blank">
                <g class="building" opacity="0">
                     <animate attributeName="opacity" values="0;1" dur="0.8s" begin="0.1s" fill="freeze" />
                     
                     <!-- Shadow (Simple Ellipse approx) -->
                     <ellipse cx="376" cy="304.8333333333333" rx="22.5" ry="12" fill="black" opacity="0.4" blur="2" />

                     <!-- Structure -->
                     <path d="M 361 104.83333333333331 l 0 200 l 15 7.5 l 0 -200 z" fill="url(#gradLeft-energetic)" stroke="none" />
                     <path d="M 391 104.83333333333331 l 0 200 l -15 7.5 l 0 -200 z" fill="url(#gradRight-energetic)" stroke="none" />
                     <path d="M 376 97.33333333333331 l 15 7.5 l -15 7.5 l -15 -7.5 z" fill="#FAD7FA" fill-opacity="0.9" stroke="none" />
                     
                     <!-- Glow Edge -->
                     <path d="M 361 104.83333333333331 l 0 200 l 15 7.5 l 0 -200 z" fill="none" stroke="#D300C5" stroke-width="0.5" opacity="0.5" />
                     <path d="M 391 104.83333333333331 l 0 200 l -15 7.5 l 0 -200 z" fill="none" stroke="#D300C5" stroke-width="0.5" opacity="0.5" />

                     <!-- Details -->
                     <path d="M 365 291.3333333333333 l 7 -4" stroke="#FAD7FA" stroke-width="2" stroke-opacity="0.4" /><path d="M 380 259.3333333333333 l 7 4" stroke="#FAD7FA" stroke-width="2" stroke-opacity="0.6" /><path d="M 380 249.33333333333331 l 7 4" stroke="#FAD7FA" stroke-width="2" stroke-opacity="0.6" /><path d="M 365 251.33333333333331 l 7 -4" stroke="#FAD7FA" stroke-width="2" stroke-opacity="0.4" /><path d="M 380 239.33333333333331 l 7 4" stroke="#FAD7FA" stroke-width="2" stroke-opacity="0.6" /><path d="M 365 241.33333333333331 l 7 -4" stroke="#FAD7FA" stroke-width="2" stroke-opacity="0.4" /><path d="M 380 229.33333333333331 l 7 4" stroke="#FAD7FA" stroke-width="2" stroke-opacity="0.6" /><path d="M 365 231.33333333333331 l 7 -4" stroke="#FAD7FA" stroke-width="2" stroke-opacity="0.4" /><path d="M 365 221.33333333333331 l 7 -4" stroke="#FAD7FA" stroke-width="2" stroke-opacity="0.4" /><path d="M 380 209.33333333333331 l 7 4" stroke="#FAD7FA" stroke-width="2" stroke-opacity="0.6" /><path d="M 365 211.33333333333331 l 7 -4" stroke="#FAD7FA" stroke-width="2" stroke-opacity="0.4" /><path d="M 380 199.33333333333331 l 7 4" stroke="#FAD7FA" stroke-width="2" stroke-opacity="0.6" /><path d="M 365 201.33333333333331 l 7 -4" stroke="#FAD7FA" stroke-width="2" stroke-opacity="0.4" /><path d="M 365 191.33333333333331 l 7 -4" stroke="#FAD7FA" stroke-width="2" stroke-opacity="0.4" /><path d="M 380 179.33333333333331 l 7 4" stroke="#FAD7FA" stroke-width="2" stroke-opacity="0.6" /><path d="M 365 181.33333333333331 l 7 -4" stroke="#FAD7FA" stroke-width="2" stroke-opacity="0.4" /><path d="M 365 171.33333333333331 l 7 -4" stroke="#FAD7FA" stroke-width="2" stroke-opacity="0.4" /><path d="M 380 159.33333333333331 l 7 4" stroke="#FAD7FA" stroke-width="2" stroke-opacity="0.6" /><path d="M 380 149.33333333333331 l 7 4" stroke="#FAD7FA" stroke-width="2" stroke-opacity="0.6" /><path d="M 365 151.33333333333331 l 7 -4" stroke="#FAD7FA" stroke-width="2" stroke-opacity="0.4" /><path d="M 380 139.33333333333331 l 7 4" stroke="#FAD7FA" stroke-width="2" stroke-opacity="0.6" /><path d="M 365 141.33333333333331 l 7 -4" stroke="#FAD7FA" stroke-width="2" stroke-opacity="0.4" /><path d="M 380 129.33333333333331 l 7 4" stroke="#FAD7FA" stroke-width="2" stroke-opacity="0.6" /><path d="M 365 131.33333333333331 l 7 -4" stroke="#FAD7FA" stroke-width="2" stroke-opacity="0.4" /><path d="M 380 119.33333333333331 l 7 4" stroke="#FAD7FA" stroke-width="2" stroke-opacity="0.6" /><path d="M 365 121.33333333333331 l 7 -4" stroke="#FAD7FA" stroke-width="2" stroke-opacity="0.4" /><path d="M 380 109.33333333333331 l 7 4" stroke="#FAD7FA" stroke-width="2" stroke-opacity="0.6" />
                     

                     <!-- Tooltip -->
                     <title>claude-mem (null) | Stars: 0</title>
                </g>
            </a>
        

            <a href="https://github.com/zintaen/issue-hunter" target="_blank">
                <g class="building" opacity="0">
                     <animate attributeName="opacity" values="0;1" dur="0.8s" begin="0.15000000000000002s" fill="freeze" />
                     
                     <!-- Shadow (Simple Ellipse approx) -->
                     <ellipse cx="448" cy="315.5358333333333" rx="18.607499999999998" ry="9.924" fill="black" opacity="0.4" blur="2" />

                     <!-- Structure -->
                     <path d="M 435.595 295.5358333333333 l 0 20 l 12.405 6.2025 l 0 -20 z" fill="url(#gradLeft-calm)" stroke="none" />
                     <path d="M 460.405 295.5358333333333 l 0 20 l -12.405 6.2025 l 0 -20 z" fill="url(#gradRight-calm)" stroke="none" />
                     <path d="M 448 289.3333333333333 l 12.405 6.2025 l -12.405 6.2025 l -12.405 -6.2025 z" fill="#D1F4FF" fill-opacity="0.9" stroke="none" />
                     
                     <!-- Glow Edge -->
                     <path d="M 435.595 295.5358333333333 l 0 20 l 12.405 6.2025 l 0 -20 z" fill="none" stroke="#00C2FF" stroke-width="0.5" opacity="0.5" />
                     <path d="M 460.405 295.5358333333333 l 0 20 l -12.405 6.2025 l 0 -20 z" fill="none" stroke="#00C2FF" stroke-width="0.5" opacity="0.5" />

                     <!-- Details -->
                     
                     

                     <!-- Tooltip -->
                     <title>issue-hunter (Python) | Stars: 0</title>
                </g>
            </a>
        

            <a href="https://github.com/zintaen/huashu-design" target="_blank">
                <g class="building" opacity="0">
                     <animate attributeName="opacity" values="0;1" dur="0.8s" begin="0.2s" fill="freeze" />
                     
                     <!-- Shadow (Simple Ellipse approx) -->
                     <ellipse cx="400" cy="316.8333333333333" rx="22.5" ry="12" fill="black" opacity="0.4" blur="2" />

                     <!-- Structure -->
                     <path d="M 385 116.83333333333331 l 0 200 l 15 7.5 l 0 -200 z" fill="url(#gradLeft-energetic)" stroke="none" />
                     <path d="M 415 116.83333333333331 l 0 200 l -15 7.5 l 0 -200 z" fill="url(#gradRight-energetic)" stroke="none" />
                     <path d="M 400 109.33333333333331 l 15 7.5 l -15 7.5 l -15 -7.5 z" fill="#FAD7FA" fill-opacity="0.9" stroke="none" />
                     
                     <!-- Glow Edge -->
                     <path d="M 385 116.83333333333331 l 0 200 l 15 7.5 l 0 -200 z" fill="none" stroke="#D300C5" stroke-width="0.5" opacity="0.5" />
                     <path d="M 415 116.83333333333331 l 0 200 l -15 7.5 l 0 -200 z" fill="none" stroke="#D300C5" stroke-width="0.5" opacity="0.5" />

                     <!-- Details -->
                     <path d="M 404 301.3333333333333 l 7 4" stroke="#FAD7FA" stroke-width="2" stroke-opacity="0.6" /><path d="M 389 303.3333333333333 l 7 -4" stroke="#FAD7FA" stroke-width="2" stroke-opacity="0.4" /><path d="M 389 293.3333333333333 l 7 -4" stroke="#FAD7FA" stroke-width="2" stroke-opacity="0.4" /><path d="M 404 281.3333333333333 l 7 4" stroke="#FAD7FA" stroke-width="2" stroke-opacity="0.6" /><path d="M 389 273.3333333333333 l 7 -4" stroke="#FAD7FA" stroke-width="2" stroke-opacity="0.4" /><path d="M 404 261.3333333333333 l 7 4" stroke="#FAD7FA" stroke-width="2" stroke-opacity="0.6" /><path d="M 389 263.3333333333333 l 7 -4" stroke="#FAD7FA" stroke-width="2" stroke-opacity="0.4" /><path d="M 389 253.33333333333331 l 7 -4" stroke="#FAD7FA" stroke-width="2" stroke-opacity="0.4" /><path d="M 389 233.33333333333331 l 7 -4" stroke="#FAD7FA" stroke-width="2" stroke-opacity="0.4" /><path d="M 404 221.33333333333331 l 7 4" stroke="#FAD7FA" stroke-width="2" stroke-opacity="0.6" /><path d="M 404 211.33333333333331 l 7 4" stroke="#FAD7FA" stroke-width="2" stroke-opacity="0.6" /><path d="M 389 213.33333333333331 l 7 -4" stroke="#FAD7FA" stroke-width="2" stroke-opacity="0.4" /><path d="M 404 191.33333333333331 l 7 4" stroke="#FAD7FA" stroke-width="2" stroke-opacity="0.6" /><path d="M 389 193.33333333333331 l 7 -4" stroke="#FAD7FA" stroke-width="2" stroke-opacity="0.4" /><path d="M 404 181.33333333333331 l 7 4" stroke="#FAD7FA" stroke-width="2" stroke-opacity="0.6" /><path d="M 389 183.33333333333331 l 7 -4" stroke="#FAD7FA" stroke-width="2" stroke-opacity="0.4" /><path d="M 404 171.33333333333331 l 7 4" stroke="#FAD7FA" stroke-width="2" stroke-opacity="0.6" /><path d="M 389 173.33333333333331 l 7 -4" stroke="#FAD7FA" stroke-width="2" stroke-opacity="0.4" /><path d="M 404 161.33333333333331 l 7 4" stroke="#FAD7FA" stroke-width="2" stroke-opacity="0.6" /><path d="M 389 163.33333333333331 l 7 -4" stroke="#FAD7FA" stroke-width="2" stroke-opacity="0.4" /><path d="M 404 151.33333333333331 l 7 4" stroke="#FAD7FA" stroke-width="2" stroke-opacity="0.6" /><path d="M 404 141.33333333333331 l 7 4" stroke="#FAD7FA" stroke-width="2" stroke-opacity="0.6" /><path d="M 389 143.33333333333331 l 7 -4" stroke="#FAD7FA" stroke-width="2" stroke-opacity="0.4" /><path d="M 389 133.33333333333331 l 7 -4" stroke="#FAD7FA" stroke-width="2" stroke-opacity="0.4" /><path d="M 404 121.33333333333331 l 7 4" stroke="#FAD7FA" stroke-width="2" stroke-opacity="0.6" /><path d="M 389 123.33333333333331 l 7 -4" stroke="#FAD7FA" stroke-width="2" stroke-opacity="0.4" />
                     

                     <!-- Tooltip -->
                     <title>huashu-design (null) | Stars: 0</title>
                </g>
            </a>
        

            <a href="https://github.com/zintaen/chalk" target="_blank">
                <g class="building" opacity="0">
                     <animate attributeName="opacity" values="0;1" dur="0.8s" begin="0.25s" fill="freeze" />
                     
                     <!-- Shadow (Simple Ellipse approx) -->
                     <ellipse cx="352" cy="316.8333333333333" rx="22.5" ry="12" fill="black" opacity="0.4" blur="2" />

                     <!-- Structure -->
                     <path d="M 337 295.49333333333334 l 0 21.34 l 15 7.5 l 0 -21.34 z" fill="url(#gradLeft-energetic)" stroke="none" />
                     <path d="M 367 295.49333333333334 l 0 21.34 l -15 7.5 l 0 -21.34 z" fill="url(#gradRight-energetic)" stroke="none" />
                     <path d="M 352 287.99333333333334 l 15 7.5 l -15 7.5 l -15 -7.5 z" fill="#FAD7FA" fill-opacity="0.9" stroke="none" />
                     
                     <!-- Glow Edge -->
                     <path d="M 337 295.49333333333334 l 0 21.34 l 15 7.5 l 0 -21.34 z" fill="none" stroke="#D300C5" stroke-width="0.5" opacity="0.5" />
                     <path d="M 367 295.49333333333334 l 0 21.34 l -15 7.5 l 0 -21.34 z" fill="none" stroke="#D300C5" stroke-width="0.5" opacity="0.5" />

                     <!-- Details -->
                     
                     

                     <!-- Tooltip -->
                     <title>chalk (null) | Stars: 0</title>
                </g>
            </a>
        

            <a href="https://github.com/zintaen/harper" target="_blank">
                <g class="building" opacity="0">
                     <animate attributeName="opacity" values="0;1" dur="0.8s" begin="0.30000000000000004s" fill="freeze" />
                     
                     <!-- Shadow (Simple Ellipse approx) -->
                     <ellipse cx="472" cy="328.8333333333333" rx="22.5" ry="12" fill="black" opacity="0.4" blur="2" />

                     <!-- Structure -->
                     <path d="M 457 128.83333333333331 l 0 200 l 15 7.5 l 0 -200 z" fill="url(#gradLeft-energetic)" stroke="none" />
                     <path d="M 487 128.83333333333331 l 0 200 l -15 7.5 l 0 -200 z" fill="url(#gradRight-energetic)" stroke="none" />
                     <path d="M 472 121.33333333333331 l 15 7.5 l -15 7.5 l -15 -7.5 z" fill="#FAD7FA" fill-opacity="0.9" stroke="none" />
                     
                     <!-- Glow Edge -->
                     <path d="M 457 128.83333333333331 l 0 200 l 15 7.5 l 0 -200 z" fill="none" stroke="#D300C5" stroke-width="0.5" opacity="0.5" />
                     <path d="M 487 128.83333333333331 l 0 200 l -15 7.5 l 0 -200 z" fill="none" stroke="#D300C5" stroke-width="0.5" opacity="0.5" />

                     <!-- Details -->
                     <path d="M 476 313.3333333333333 l 7 4" stroke="#FAD7FA" stroke-width="2" stroke-opacity="0.6" /><path d="M 461 305.3333333333333 l 7 -4" stroke="#FAD7FA" stroke-width="2" stroke-opacity="0.4" /><path d="M 476 293.3333333333333 l 7 4" stroke="#FAD7FA" stroke-width="2" stroke-opacity="0.6" /><path d="M 461 295.3333333333333 l 7 -4" stroke="#FAD7FA" stroke-width="2" stroke-opacity="0.4" /><path d="M 476 283.3333333333333 l 7 4" stroke="#FAD7FA" stroke-width="2" stroke-opacity="0.6" /><path d="M 461 285.3333333333333 l 7 -4" stroke="#FAD7FA" stroke-width="2" stroke-opacity="0.4" /><path d="M 476 273.3333333333333 l 7 4" stroke="#FAD7FA" stroke-width="2" stroke-opacity="0.6" /><path d="M 476 263.3333333333333 l 7 4" stroke="#FAD7FA" stroke-width="2" stroke-opacity="0.6" /><path d="M 461 265.3333333333333 l 7 -4" stroke="#FAD7FA" stroke-width="2" stroke-opacity="0.4" /><path d="M 476 253.33333333333331 l 7 4" stroke="#FAD7FA" stroke-width="2" stroke-opacity="0.6" /><path d="M 461 255.33333333333331 l 7 -4" stroke="#FAD7FA" stroke-width="2" stroke-opacity="0.4" /><path d="M 461 245.33333333333331 l 7 -4" stroke="#FAD7FA" stroke-width="2" stroke-opacity="0.4" /><path d="M 476 233.33333333333331 l 7 4" stroke="#FAD7FA" stroke-width="2" stroke-opacity="0.6" /><path d="M 461 235.33333333333331 l 7 -4" stroke="#FAD7FA" stroke-width="2" stroke-opacity="0.4" /><path d="M 476 223.33333333333331 l 7 4" stroke="#FAD7FA" stroke-width="2" stroke-opacity="0.6" /><path d="M 461 225.33333333333331 l 7 -4" stroke="#FAD7FA" stroke-width="2" stroke-opacity="0.4" /><path d="M 461 215.33333333333331 l 7 -4" stroke="#FAD7FA" stroke-width="2" stroke-opacity="0.4" /><path d="M 461 205.33333333333331 l 7 -4" stroke="#FAD7FA" stroke-width="2" stroke-opacity="0.4" /><path d="M 476 193.33333333333331 l 7 4" stroke="#FAD7FA" stroke-width="2" stroke-opacity="0.6" /><path d="M 476 183.33333333333331 l 7 4" stroke="#FAD7FA" stroke-width="2" stroke-opacity="0.6" /><path d="M 461 185.33333333333331 l 7 -4" stroke="#FAD7FA" stroke-width="2" stroke-opacity="0.4" /><path d="M 476 163.33333333333331 l 7 4" stroke="#FAD7FA" stroke-width="2" stroke-opacity="0.6" /><path d="M 476 153.33333333333331 l 7 4" stroke="#FAD7FA" stroke-width="2" stroke-opacity="0.6" /><path d="M 461 155.33333333333331 l 7 -4" stroke="#FAD7FA" stroke-width="2" stroke-opacity="0.4" /><path d="M 476 143.33333333333331 l 7 4" stroke="#FAD7FA" stroke-width="2" stroke-opacity="0.6" /><path d="M 461 145.33333333333331 l 7 -4" stroke="#FAD7FA" stroke-width="2" stroke-opacity="0.4" /><path d="M 476 133.33333333333331 l 7 4" stroke="#FAD7FA" stroke-width="2" stroke-opacity="0.6" /><path d="M 461 135.33333333333331 l 7 -4" stroke="#FAD7FA" stroke-width="2" stroke-opacity="0.4" />
                     

                     <!-- Tooltip -->
                     <title>harper (null) | Stars: 0</title>
                </g>
            </a>
        

            <a href="https://github.com/zintaen/E2B" target="_blank">
                <g class="building" opacity="0">
                     <animate attributeName="opacity" values="0;1" dur="0.8s" begin="0.35000000000000003s" fill="freeze" />
                     
                     <!-- Shadow (Simple Ellipse approx) -->
                     <ellipse cx="424" cy="328.8333333333333" rx="22.5" ry="12" fill="black" opacity="0.4" blur="2" />

                     <!-- Structure -->
                     <path d="M 409 128.83333333333331 l 0 200 l 15 7.5 l 0 -200 z" fill="url(#gradLeft-energetic)" stroke="none" />
                     <path d="M 439 128.83333333333331 l 0 200 l -15 7.5 l 0 -200 z" fill="url(#gradRight-energetic)" stroke="none" />
                     <path d="M 424 121.33333333333331 l 15 7.5 l -15 7.5 l -15 -7.5 z" fill="#FAD7FA" fill-opacity="0.9" stroke="none" />
                     
                     <!-- Glow Edge -->
                     <path d="M 409 128.83333333333331 l 0 200 l 15 7.5 l 0 -200 z" fill="none" stroke="#D300C5" stroke-width="0.5" opacity="0.5" />
                     <path d="M 439 128.83333333333331 l 0 200 l -15 7.5 l 0 -200 z" fill="none" stroke="#D300C5" stroke-width="0.5" opacity="0.5" />

                     <!-- Details -->
                     <path d="M 428 313.3333333333333 l 7 4" stroke="#FAD7FA" stroke-width="2" stroke-opacity="0.6" /><path d="M 428 293.3333333333333 l 7 4" stroke="#FAD7FA" stroke-width="2" stroke-opacity="0.6" /><path d="M 413 295.3333333333333 l 7 -4" stroke="#FAD7FA" stroke-width="2" stroke-opacity="0.4" /><path d="M 413 285.3333333333333 l 7 -4" stroke="#FAD7FA" stroke-width="2" stroke-opacity="0.4" /><path d="M 428 273.3333333333333 l 7 4" stroke="#FAD7FA" stroke-width="2" stroke-opacity="0.6" /><path d="M 413 275.3333333333333 l 7 -4" stroke="#FAD7FA" stroke-width="2" stroke-opacity="0.4" /><path d="M 428 263.3333333333333 l 7 4" stroke="#FAD7FA" stroke-width="2" stroke-opacity="0.6" /><path d="M 413 265.3333333333333 l 7 -4" stroke="#FAD7FA" stroke-width="2" stroke-opacity="0.4" /><path d="M 428 253.33333333333331 l 7 4" stroke="#FAD7FA" stroke-width="2" stroke-opacity="0.6" /><path d="M 413 255.33333333333331 l 7 -4" stroke="#FAD7FA" stroke-width="2" stroke-opacity="0.4" /><path d="M 428 243.33333333333331 l 7 4" stroke="#FAD7FA" stroke-width="2" stroke-opacity="0.6" /><path d="M 413 245.33333333333331 l 7 -4" stroke="#FAD7FA" stroke-width="2" stroke-opacity="0.4" /><path d="M 428 233.33333333333331 l 7 4" stroke="#FAD7FA" stroke-width="2" stroke-opacity="0.6" /><path d="M 413 235.33333333333331 l 7 -4" stroke="#FAD7FA" stroke-width="2" stroke-opacity="0.4" /><path d="M 428 223.33333333333331 l 7 4" stroke="#FAD7FA" stroke-width="2" stroke-opacity="0.6" /><path d="M 413 225.33333333333331 l 7 -4" stroke="#FAD7FA" stroke-width="2" stroke-opacity="0.4" /><path d="M 428 213.33333333333331 l 7 4" stroke="#FAD7FA" stroke-width="2" stroke-opacity="0.6" /><path d="M 413 215.33333333333331 l 7 -4" stroke="#FAD7FA" stroke-width="2" stroke-opacity="0.4" /><path d="M 428 203.33333333333331 l 7 4" stroke="#FAD7FA" stroke-width="2" stroke-opacity="0.6" /><path d="M 413 205.33333333333331 l 7 -4" stroke="#FAD7FA" stroke-width="2" stroke-opacity="0.4" /><path d="M 428 193.33333333333331 l 7 4" stroke="#FAD7FA" stroke-width="2" stroke-opacity="0.6" /><path d="M 428 183.33333333333331 l 7 4" stroke="#FAD7FA" stroke-width="2" stroke-opacity="0.6" /><path d="M 413 185.33333333333331 l 7 -4" stroke="#FAD7FA" stroke-width="2" stroke-opacity="0.4" /><path d="M 428 173.33333333333331 l 7 4" stroke="#FAD7FA" stroke-width="2" stroke-opacity="0.6" /><path d="M 428 163.33333333333331 l 7 4" stroke="#FAD7FA" stroke-width="2" stroke-opacity="0.6" /><path d="M 413 165.33333333333331 l 7 -4" stroke="#FAD7FA" stroke-width="2" stroke-opacity="0.4" /><path d="M 428 153.33333333333331 l 7 4" stroke="#FAD7FA" stroke-width="2" stroke-opacity="0.6" /><path d="M 413 155.33333333333331 l 7 -4" stroke="#FAD7FA" stroke-width="2" stroke-opacity="0.4" /><path d="M 428 133.33333333333331 l 7 4" stroke="#FAD7FA" stroke-width="2" stroke-opacity="0.6" /><path d="M 413 135.33333333333331 l 7 -4" stroke="#FAD7FA" stroke-width="2" stroke-opacity="0.4" />
                     

                     <!-- Tooltip -->
                     <title>E2B (null) | Stars: 0</title>
                </g>
            </a>
        

            <a href="https://github.com/zintaen/code-review-graph" target="_blank">
                <g class="building" opacity="0">
                     <animate attributeName="opacity" values="0;1" dur="0.8s" begin="0.4s" fill="freeze" />
                     
                     <!-- Shadow (Simple Ellipse approx) -->
                     <ellipse cx="376" cy="328.8333333333333" rx="22.5" ry="12" fill="black" opacity="0.4" blur="2" />

                     <!-- Structure -->
                     <path d="M 361 216.89333333333332 l 0 111.94 l 15 7.5 l 0 -111.94 z" fill="url(#gradLeft-energetic)" stroke="none" />
                     <path d="M 391 216.89333333333332 l 0 111.94 l -15 7.5 l 0 -111.94 z" fill="url(#gradRight-energetic)" stroke="none" />
                     <path d="M 376 209.39333333333332 l 15 7.5 l -15 7.5 l -15 -7.5 z" fill="#FAD7FA" fill-opacity="0.9" stroke="none" />
                     
                     <!-- Glow Edge -->
                     <path d="M 361 216.89333333333332 l 0 111.94 l 15 7.5 l 0 -111.94 z" fill="none" stroke="#D300C5" stroke-width="0.5" opacity="0.5" />
                     <path d="M 391 216.89333333333332 l 0 111.94 l -15 7.5 l 0 -111.94 z" fill="none" stroke="#D300C5" stroke-width="0.5" opacity="0.5" />

                     <!-- Details -->
                     <path d="M 380 313.3333333333333 l 7 4" stroke="#FAD7FA" stroke-width="2" stroke-opacity="0.6" /><path d="M 365 315.3333333333333 l 7 -4" stroke="#FAD7FA" stroke-width="2" stroke-opacity="0.4" /><path d="M 365 295.3333333333333 l 7 -4" stroke="#FAD7FA" stroke-width="2" stroke-opacity="0.4" /><path d="M 380 283.3333333333333 l 7 4" stroke="#FAD7FA" stroke-width="2" stroke-opacity="0.6" /><path d="M 380 273.3333333333333 l 7 4" stroke="#FAD7FA" stroke-width="2" stroke-opacity="0.6" /><path d="M 365 275.3333333333333 l 7 -4" stroke="#FAD7FA" stroke-width="2" stroke-opacity="0.4" /><path d="M 380 253.33333333333331 l 7 4" stroke="#FAD7FA" stroke-width="2" stroke-opacity="0.6" /><path d="M 365 255.33333333333331 l 7 -4" stroke="#FAD7FA" stroke-width="2" stroke-opacity="0.4" /><path d="M 380 243.33333333333331 l 7 4" stroke="#FAD7FA" stroke-width="2" stroke-opacity="0.6" /><path d="M 380 233.33333333333331 l 7 4" stroke="#FAD7FA" stroke-width="2" stroke-opacity="0.6" /><path d="M 365 235.33333333333331 l 7 -4" stroke="#FAD7FA" stroke-width="2" stroke-opacity="0.4" /><path d="M 365 225.33333333333331 l 7 -4" stroke="#FAD7FA" stroke-width="2" stroke-opacity="0.4" />
                     

                     <!-- Tooltip -->
                     <title>code-review-graph (null) | Stars: 0</title>
                </g>
            </a>
        

            <a href="https://github.com/zintaen/EverOS" target="_blank">
                <g class="building" opacity="0">
                     <animate attributeName="opacity" values="0;1" dur="0.8s" begin="0.45s" fill="freeze" />
                     
                     <!-- Shadow (Simple Ellipse approx) -->
                     <ellipse cx="448" cy="340.8333333333333" rx="22.5" ry="12" fill="black" opacity="0.4" blur="2" />

                     <!-- Structure -->
                     <path d="M 433 140.83333333333331 l 0 200 l 15 7.5 l 0 -200 z" fill="url(#gradLeft-energetic)" stroke="none" />
                     <path d="M 463 140.83333333333331 l 0 200 l -15 7.5 l 0 -200 z" fill="url(#gradRight-energetic)" stroke="none" />
                     <path d="M 448 133.33333333333331 l 15 7.5 l -15 7.5 l -15 -7.5 z" fill="#FAD7FA" fill-opacity="0.9" stroke="none" />
                     
                     <!-- Glow Edge -->
                     <path d="M 433 140.83333333333331 l 0 200 l 15 7.5 l 0 -200 z" fill="none" stroke="#D300C5" stroke-width="0.5" opacity="0.5" />
                     <path d="M 463 140.83333333333331 l 0 200 l -15 7.5 l 0 -200 z" fill="none" stroke="#D300C5" stroke-width="0.5" opacity="0.5" />

                     <!-- Details -->
                     <path d="M 452 325.3333333333333 l 7 4" stroke="#FAD7FA" stroke-width="2" stroke-opacity="0.6" /><path d="M 437 327.3333333333333 l 7 -4" stroke="#FAD7FA" stroke-width="2" stroke-opacity="0.4" /><path d="M 452 315.3333333333333 l 7 4" stroke="#FAD7FA" stroke-width="2" stroke-opacity="0.6" /><path d="M 437 317.3333333333333 l 7 -4" stroke="#FAD7FA" stroke-width="2" stroke-opacity="0.4" /><path d="M 452 305.3333333333333 l 7 4" stroke="#FAD7FA" stroke-width="2" stroke-opacity="0.6" /><path d="M 437 307.3333333333333 l 7 -4" stroke="#FAD7FA" stroke-width="2" stroke-opacity="0.4" /><path d="M 437 297.3333333333333 l 7 -4" stroke="#FAD7FA" stroke-width="2" stroke-opacity="0.4" /><path d="M 437 287.3333333333333 l 7 -4" stroke="#FAD7FA" stroke-width="2" stroke-opacity="0.4" /><path d="M 452 275.3333333333333 l 7 4" stroke="#FAD7FA" stroke-width="2" stroke-opacity="0.6" /><path d="M 437 277.3333333333333 l 7 -4" stroke="#FAD7FA" stroke-width="2" stroke-opacity="0.4" /><path d="M 452 265.3333333333333 l 7 4" stroke="#FAD7FA" stroke-width="2" stroke-opacity="0.6" /><path d="M 437 257.3333333333333 l 7 -4" stroke="#FAD7FA" stroke-width="2" stroke-opacity="0.4" /><path d="M 452 245.33333333333331 l 7 4" stroke="#FAD7FA" stroke-width="2" stroke-opacity="0.6" /><path d="M 437 247.33333333333331 l 7 -4" stroke="#FAD7FA" stroke-width="2" stroke-opacity="0.4" /><path d="M 452 235.33333333333331 l 7 4" stroke="#FAD7FA" stroke-width="2" stroke-opacity="0.6" /><path d="M 437 237.33333333333331 l 7 -4" stroke="#FAD7FA" stroke-width="2" stroke-opacity="0.4" /><path d="M 452 225.33333333333331 l 7 4" stroke="#FAD7FA" stroke-width="2" stroke-opacity="0.6" /><path d="M 437 227.33333333333331 l 7 -4" stroke="#FAD7FA" stroke-width="2" stroke-opacity="0.4" /><path d="M 452 215.33333333333331 l 7 4" stroke="#FAD7FA" stroke-width="2" stroke-opacity="0.6" /><path d="M 437 217.33333333333331 l 7 -4" stroke="#FAD7FA" stroke-width="2" stroke-opacity="0.4" /><path d="M 452 205.33333333333331 l 7 4" stroke="#FAD7FA" stroke-width="2" stroke-opacity="0.6" /><path d="M 437 207.33333333333331 l 7 -4" stroke="#FAD7FA" stroke-width="2" stroke-opacity="0.4" /><path d="M 452 195.33333333333331 l 7 4" stroke="#FAD7FA" stroke-width="2" stroke-opacity="0.6" /><path d="M 452 185.33333333333331 l 7 4" stroke="#FAD7FA" stroke-width="2" stroke-opacity="0.6" /><path d="M 437 187.33333333333331 l 7 -4" stroke="#FAD7FA" stroke-width="2" stroke-opacity="0.4" /><path d="M 452 165.33333333333331 l 7 4" stroke="#FAD7FA" stroke-width="2" stroke-opacity="0.6" /><path d="M 437 167.33333333333331 l 7 -4" stroke="#FAD7FA" stroke-width="2" stroke-opacity="0.4" /><path d="M 452 155.33333333333331 l 7 4" stroke="#FAD7FA" stroke-width="2" stroke-opacity="0.6" /><path d="M 437 157.33333333333331 l 7 -4" stroke="#FAD7FA" stroke-width="2" stroke-opacity="0.4" /><path d="M 452 145.33333333333331 l 7 4" stroke="#FAD7FA" stroke-width="2" stroke-opacity="0.6" />
                     

                     <!-- Tooltip -->
                     <title>EverOS (null) | Stars: 0</title>
                </g>
            </a>
        
  </g>

  <!-- Footer -->
  <text x="770" y="580" text-anchor="end" fill="rgba(255,255,255,0.4)" font-family="Courier New" font-size="10">GENERATED BY REPOVERSE</text>
</svg>