<svg width="800" height="600" viewBox="0 0 800 600" xmlns="http://www.w3.org/2000/svg">
  <defs>
    <!-- Sky Gradient -->
    <linearGradient id="skyGradient" x1="0%" y1="0%" x2="0%" y2="100%">
      <stop offset="0%" stop-color="#0f0c29" />
      <stop offset="50%" stop-color="#302b63" />
      <stop offset="100%" stop-color="#24243e" />
    </linearGradient>

    <!-- Retro Grid Pattern -->
    <pattern id="gridPattern" width="40" height="20" patternUnits="userSpaceOnUse" patternTransform="rotate(0)">
       <path d="M 40 0 L 0 0 0 20" fill="none" stroke="magenta" stroke-width="0.5" opacity="0.2"/>
    </pattern>

    <!-- Floor Glow -->
    <radialGradient id="floorGlow" cx="50%" cy="100%" r="80%">
        <stop offset="0%" stop-color="#ff00cc" stop-opacity="0.15" />
        <stop offset="100%" stop-color="transparent" />
    </radialGradient>
    
    
        <linearGradient id="gradLeft-happy" x1="0%" y1="0%" x2="100%" y2="100%">
            <stop offset="0%" stop-color="#FFD700" stop-opacity="0.8"/>
            <stop offset="100%" stop-color="#050510" stop-opacity="0.9"/>
        </linearGradient>
        <linearGradient id="gradRight-happy" x1="0%" y1="0%" x2="0%" y2="100%">
            <stop offset="0%" stop-color="#FFD700" stop-opacity="0.6"/>
            <stop offset="100%" stop-color="#0b0b1a" stop-opacity="0.8"/>
        </linearGradient>
    

        <linearGradient id="gradLeft-focused" x1="0%" y1="0%" x2="100%" y2="100%">
            <stop offset="0%" stop-color="#00FF94" stop-opacity="0.8"/>
            <stop offset="100%" stop-color="#050510" stop-opacity="0.9"/>
        </linearGradient>
        <linearGradient id="gradRight-focused" x1="0%" y1="0%" x2="0%" y2="100%">
            <stop offset="0%" stop-color="#00FF94" stop-opacity="0.6"/>
            <stop offset="100%" stop-color="#0b0b1a" stop-opacity="0.8"/>
        </linearGradient>
    

        <linearGradient id="gradLeft-calm" x1="0%" y1="0%" x2="100%" y2="100%">
            <stop offset="0%" stop-color="#00C2FF" stop-opacity="0.8"/>
            <stop offset="100%" stop-color="#050510" stop-opacity="0.9"/>
        </linearGradient>
        <linearGradient id="gradRight-calm" x1="0%" y1="0%" x2="0%" y2="100%">
            <stop offset="0%" stop-color="#00C2FF" stop-opacity="0.6"/>
            <stop offset="100%" stop-color="#0b0b1a" stop-opacity="0.8"/>
        </linearGradient>
    

        <linearGradient id="gradLeft-stressed" x1="0%" y1="0%" x2="100%" y2="100%">
            <stop offset="0%" stop-color="#FF2A6D" stop-opacity="0.8"/>
            <stop offset="100%" stop-color="#050510" stop-opacity="0.9"/>
        </linearGradient>
        <linearGradient id="gradRight-stressed" x1="0%" y1="0%" x2="0%" y2="100%">
            <stop offset="0%" stop-color="#FF2A6D" stop-opacity="0.6"/>
            <stop offset="100%" stop-color="#0b0b1a" stop-opacity="0.8"/>
        </linearGradient>
    

        <linearGradient id="gradLeft-energetic" x1="0%" y1="0%" x2="100%" y2="100%">
            <stop offset="0%" stop-color="#D300C5" stop-opacity="0.8"/>
            <stop offset="100%" stop-color="#050510" stop-opacity="0.9"/>
        </linearGradient>
        <linearGradient id="gradRight-energetic" x1="0%" y1="0%" x2="0%" y2="100%">
            <stop offset="0%" stop-color="#D300C5" stop-opacity="0.6"/>
            <stop offset="100%" stop-color="#0b0b1a" stop-opacity="0.8"/>
        </linearGradient>
    
  </defs>

  <!-- Background -->
  <rect width="100%" height="100%" fill="url(#skyGradient)" />
  
  <!-- Stars -->
  <circle cx="572.6075492183804" cy="131.47783490535446" r="1.4258399780957083" fill="white" opacity="0.8838357089160858"/><circle cx="705.663007816531" cy="209.71259258899036" r="1.4600825703851203" fill="white" opacity="0.20062236456796745"/><circle cx="535.9604246761724" cy="236.58547744397455" r="0.3828224411078318" fill="white" opacity="0.2746276478962748"/><circle cx="368.5545395939961" cy="318.86104274576445" r="0.9830704074729655" fill="white" opacity="0.5987183881158622"/><circle cx="195.35932541086095" cy="133.64722131379114" r="1.0110759975053516" fill="white" opacity="0.5249982429106652"/><circle cx="676.07573967084" cy="31.430394866463352" r="1.495765362827776" fill="white" opacity="0.1155854410175412"/><circle cx="666.556951260762" cy="334.08819346868546" r="1.2697317975775457" fill="white" opacity="0.970449662445295"/><circle cx="667.816825745944" cy="145.94518472850154" r="0.07212008410811199" fill="white" opacity="0.41511237703252957"/><circle cx="197.61556134134713" cy="275.1056637919886" r="0.9174645021803705" fill="white" opacity="0.32430267901594534"/><circle cx="383.7318142323648" cy="147.3068012579828" r="0.11183506328146398" fill="white" opacity="0.6630877042596579"/><circle cx="721.5909347852877" cy="274.87387626183613" r="1.111617134994849" fill="white" opacity="0.4308226185572952"/><circle cx="755.6276448773285" cy="269.74165504962644" r="0.5110781368398747" fill="white" opacity="0.48685736409148617"/><circle cx="105.66623868817473" cy="68.26043441609343" r="1.0808405865744097" fill="white" opacity="0.9277147527358878"/><circle cx="518.3678570793334" cy="191.0733522720407" r="1.23316686248269" fill="white" opacity="0.8008673902072136"/><circle cx="160.26641585820585" cy="222.45856948965653" r="0.7504729945848362" fill="white" opacity="0.09979081511501153"/><circle cx="714.6378983512499" cy="298.2373163609811" r="0.49691076142993074" fill="white" opacity="0.43274330257950466"/><circle cx="66.0972770779285" cy="350.2543335215708" r="1.1141537405083408" fill="white" opacity="0.26763475113750745"/><circle cx="496.1979286474" cy="214.2992416663155" r="0.7777394964810137" fill="white" opacity="0.7222313453605729"/><circle cx="405.4745426862905" cy="29.686267636448516" r="0.3930546360448397" fill="white" opacity="0.2912407054209527"/><circle cx="471.6647742153466" cy="85.9715743986599" r="0.802762294281983" fill="white" opacity="0.7402809903156369"/><circle cx="524.688966346236" cy="300.6861367348464" r="1.342436419230872" fill="white" opacity="0.2628456891981019"/><circle cx="199.3713951189065" cy="146.95802070561035" r="0.8970855127573986" fill="white" opacity="0.8248069448096877"/><circle cx="432.49633325460445" cy="257.8205364717017" r="0.21834023514648682" fill="white" opacity="0.790896099260453"/><circle cx="374.9523731984146" cy="161.5283264617752" r="0.4196318258091831" fill="white" opacity="0.4591014686868473"/><circle cx="102.87581195860405" cy="175.28489813378386" r="0.42702646508147923" fill="white" opacity="0.43946305139259856"/><circle cx="602.2169086444788" cy="65.8698014534689" r="1.4634390042350827" fill="white" opacity="0.6102011553663558"/><circle cx="301.1112234318626" cy="177.5402001216313" r="0.07744021562851577" fill="white" opacity="0.02205389310657635"/><circle cx="152.95841409883303" cy="212.51689770355915" r="1.0109070619220504" fill="white" opacity="0.2576833341429694"/><circle cx="430.38845764313436" cy="303.5075883712465" r="1.112155596475434" fill="white" opacity="0.6071917942860081"/><circle cx="246.3469894291366" cy="213.43454043323416" r="1.3651562681884704" fill="white" opacity="0.2828675766072106"/>

  <!-- Perspective Floor Grid (Simulated) -->
  <g transform="translate(0, 300) scale(1, 0.5)">
     <rect x="-800" y="0" width="2400" height="1200" fill="url(#gridPattern)" opacity="0.3" transform="rotate(45, 400, 0)"/>
  </g>
  
  <!-- Horizon Glow -->
  <rect x="0" y="300" width="800" height="300" fill="url(#floorGlow)" />

  <!-- City Label / Branding -->
  <g transform="translate(40, 60)">
      <text fill="cyan" font-family="Verdana, sans-serif" font-size="28" font-weight="900" style="text-shadow: 0 0 10px cyan;">STEPHEN CHENG CITY</text>
      <text y="25" fill="#ff00cc" font-family="Courier New, monospace" font-size="14" font-weight="bold" letter-spacing="2">POP: 14 // BLOCKS: 23</text>
  </g>

  <!-- The Buildings -->
  <g transform="translate(0, 50)"> 
    
            <a href="https://github.com/zintaen/repo-verse" target="_blank">
                <g class="building" opacity="0">
                     <animate attributeName="opacity" values="0;1" dur="0.8s" begin="0s" fill="freeze" />
                     
                     <!-- Shadow (Simple Ellipse approx) -->
                     <ellipse cx="400" cy="292.8333333333333" rx="22.5" ry="12" fill="black" opacity="0.4" blur="2" />

                     <!-- Structure -->
                     <path d="M 385 272.8333333333333 l 0 20 l 15 7.5 l 0 -20 z" fill="url(#gradLeft-focused)" stroke="none" />
                     <path d="M 415 272.8333333333333 l 0 20 l -15 7.5 l 0 -20 z" fill="url(#gradRight-focused)" stroke="none" />
                     <path d="M 400 265.3333333333333 l 15 7.5 l -15 7.5 l -15 -7.5 z" fill="#E0FFF1" fill-opacity="0.9" stroke="none" />
                     
                     <!-- Glow Edge -->
                     <path d="M 385 272.8333333333333 l 0 20 l 15 7.5 l 0 -20 z" fill="none" stroke="#00FF94" stroke-width="0.5" opacity="0.5" />
                     <path d="M 415 272.8333333333333 l 0 20 l -15 7.5 l 0 -20 z" fill="none" stroke="#00FF94" stroke-width="0.5" opacity="0.5" />

                     <!-- Details -->
                     
                     

                     <!-- Tooltip -->
                     <title>repo-verse (TypeScript) | Stars: 0</title>
                </g>
            </a>
        

            <a href="https://github.com/zintaen/kristen-calendar" target="_blank">
                <g class="building" opacity="0">
                     <animate attributeName="opacity" values="0;1" dur="0.8s" begin="0.05s" fill="freeze" />
                     
                     <!-- Shadow (Simple Ellipse approx) -->
                     <ellipse cx="424" cy="304.8333333333333" rx="22.5" ry="12" fill="black" opacity="0.4" blur="2" />

                     <!-- Structure -->
                     <path d="M 409 255.89333333333332 l 0 48.94 l 15 7.5 l 0 -48.94 z" fill="url(#gradLeft-energetic)" stroke="none" />
                     <path d="M 439 255.89333333333332 l 0 48.94 l -15 7.5 l 0 -48.94 z" fill="url(#gradRight-energetic)" stroke="none" />
                     <path d="M 424 248.39333333333332 l 15 7.5 l -15 7.5 l -15 -7.5 z" fill="#FAD7FA" fill-opacity="0.9" stroke="none" />
                     
                     <!-- Glow Edge -->
                     <path d="M 409 255.89333333333332 l 0 48.94 l 15 7.5 l 0 -48.94 z" fill="none" stroke="#D300C5" stroke-width="0.5" opacity="0.5" />
                     <path d="M 439 255.89333333333332 l 0 48.94 l -15 7.5 l 0 -48.94 z" fill="none" stroke="#D300C5" stroke-width="0.5" opacity="0.5" />

                     <!-- Details -->
                     <path d="M 428 289.3333333333333 l 7 4" stroke="#FAD7FA" stroke-width="2" stroke-opacity="0.6" /><path d="M 413 291.3333333333333 l 7 -4" stroke="#FAD7FA" stroke-width="2" stroke-opacity="0.4" /><path d="M 428 279.3333333333333 l 7 4" stroke="#FAD7FA" stroke-width="2" stroke-opacity="0.6" /><path d="M 428 269.3333333333333 l 7 4" stroke="#FAD7FA" stroke-width="2" stroke-opacity="0.6" /><path d="M 413 271.3333333333333 l 7 -4" stroke="#FAD7FA" stroke-width="2" stroke-opacity="0.4" />
                     

                     <!-- Tooltip -->
                     <title>kristen-calendar (HTML) | Stars: 0</title>
                </g>
            </a>
        

            <a href="https://github.com/zintaen/zintaen" target="_blank">
                <g class="building" opacity="0">
                     <animate attributeName="opacity" values="0;1" dur="0.8s" begin="0.1s" fill="freeze" />
                     
                     <!-- Shadow (Simple Ellipse approx) -->
                     <ellipse cx="376" cy="304.8333333333333" rx="22.5" ry="12" fill="black" opacity="0.4" blur="2" />

                     <!-- Structure -->
                     <path d="M 361 169.2533333333333 l 0 135.58 l 15 7.5 l 0 -135.58 z" fill="url(#gradLeft-energetic)" stroke="none" />
                     <path d="M 391 169.2533333333333 l 0 135.58 l -15 7.5 l 0 -135.58 z" fill="url(#gradRight-energetic)" stroke="none" />
                     <path d="M 376 161.7533333333333 l 15 7.5 l -15 7.5 l -15 -7.5 z" fill="#FAD7FA" fill-opacity="0.9" stroke="none" />
                     
                     <!-- Glow Edge -->
                     <path d="M 361 169.2533333333333 l 0 135.58 l 15 7.5 l 0 -135.58 z" fill="none" stroke="#D300C5" stroke-width="0.5" opacity="0.5" />
                     <path d="M 391 169.2533333333333 l 0 135.58 l -15 7.5 l 0 -135.58 z" fill="none" stroke="#D300C5" stroke-width="0.5" opacity="0.5" />

                     <!-- Details -->
                     <path d="M 380 289.3333333333333 l 7 4" stroke="#FAD7FA" stroke-width="2" stroke-opacity="0.6" /><path d="M 380 279.3333333333333 l 7 4" stroke="#FAD7FA" stroke-width="2" stroke-opacity="0.6" /><path d="M 365 281.3333333333333 l 7 -4" stroke="#FAD7FA" stroke-width="2" stroke-opacity="0.4" /><path d="M 380 269.3333333333333 l 7 4" stroke="#FAD7FA" stroke-width="2" stroke-opacity="0.6" /><path d="M 365 261.3333333333333 l 7 -4" stroke="#FAD7FA" stroke-width="2" stroke-opacity="0.4" /><path d="M 380 249.33333333333331 l 7 4" stroke="#FAD7FA" stroke-width="2" stroke-opacity="0.6" /><path d="M 365 251.33333333333331 l 7 -4" stroke="#FAD7FA" stroke-width="2" stroke-opacity="0.4" /><path d="M 380 239.33333333333331 l 7 4" stroke="#FAD7FA" stroke-width="2" stroke-opacity="0.6" /><path d="M 365 241.33333333333331 l 7 -4" stroke="#FAD7FA" stroke-width="2" stroke-opacity="0.4" /><path d="M 365 231.33333333333331 l 7 -4" stroke="#FAD7FA" stroke-width="2" stroke-opacity="0.4" /><path d="M 380 219.33333333333331 l 7 4" stroke="#FAD7FA" stroke-width="2" stroke-opacity="0.6" /><path d="M 365 221.33333333333331 l 7 -4" stroke="#FAD7FA" stroke-width="2" stroke-opacity="0.4" /><path d="M 365 211.33333333333331 l 7 -4" stroke="#FAD7FA" stroke-width="2" stroke-opacity="0.4" /><path d="M 380 199.33333333333331 l 7 4" stroke="#FAD7FA" stroke-width="2" stroke-opacity="0.6" /><path d="M 365 201.33333333333331 l 7 -4" stroke="#FAD7FA" stroke-width="2" stroke-opacity="0.4" /><path d="M 380 189.33333333333331 l 7 4" stroke="#FAD7FA" stroke-width="2" stroke-opacity="0.6" /><path d="M 365 191.33333333333331 l 7 -4" stroke="#FAD7FA" stroke-width="2" stroke-opacity="0.4" />
                     

                     <!-- Tooltip -->
                     <title>zintaen (null) | Stars: 0</title>
                </g>
            </a>
        

            <a href="https://github.com/zintaen/epd-carbon-compare" target="_blank">
                <g class="building" opacity="0">
                     <animate attributeName="opacity" values="0;1" dur="0.8s" begin="0.15000000000000002s" fill="freeze" />
                     
                     <!-- Shadow (Simple Ellipse approx) -->
                     <ellipse cx="448" cy="316.8333333333333" rx="22.5" ry="12" fill="black" opacity="0.4" blur="2" />

                     <!-- Structure -->
                     <path d="M 433 116.83333333333331 l 0 200 l 15 7.5 l 0 -200 z" fill="url(#gradLeft-calm)" stroke="none" />
                     <path d="M 463 116.83333333333331 l 0 200 l -15 7.5 l 0 -200 z" fill="url(#gradRight-calm)" stroke="none" />
                     <path d="M 448 109.33333333333331 l 15 7.5 l -15 7.5 l -15 -7.5 z" fill="#D1F4FF" fill-opacity="0.9" stroke="none" />
                     
                     <!-- Glow Edge -->
                     <path d="M 433 116.83333333333331 l 0 200 l 15 7.5 l 0 -200 z" fill="none" stroke="#00C2FF" stroke-width="0.5" opacity="0.5" />
                     <path d="M 463 116.83333333333331 l 0 200 l -15 7.5 l 0 -200 z" fill="none" stroke="#00C2FF" stroke-width="0.5" opacity="0.5" />

                     <!-- Details -->
                     <path d="M 452 291.3333333333333 l 7 4" stroke="#D1F4FF" stroke-width="2" stroke-opacity="0.6" /><path d="M 437 293.3333333333333 l 7 -4" stroke="#D1F4FF" stroke-width="2" stroke-opacity="0.4" /><path d="M 437 283.3333333333333 l 7 -4" stroke="#D1F4FF" stroke-width="2" stroke-opacity="0.4" /><path d="M 452 271.3333333333333 l 7 4" stroke="#D1F4FF" stroke-width="2" stroke-opacity="0.6" /><path d="M 452 261.3333333333333 l 7 4" stroke="#D1F4FF" stroke-width="2" stroke-opacity="0.6" /><path d="M 437 263.3333333333333 l 7 -4" stroke="#D1F4FF" stroke-width="2" stroke-opacity="0.4" /><path d="M 437 253.33333333333331 l 7 -4" stroke="#D1F4FF" stroke-width="2" stroke-opacity="0.4" /><path d="M 452 241.33333333333331 l 7 4" stroke="#D1F4FF" stroke-width="2" stroke-opacity="0.6" /><path d="M 452 221.33333333333331 l 7 4" stroke="#D1F4FF" stroke-width="2" stroke-opacity="0.6" /><path d="M 437 223.33333333333331 l 7 -4" stroke="#D1F4FF" stroke-width="2" stroke-opacity="0.4" /><path d="M 452 201.33333333333331 l 7 4" stroke="#D1F4FF" stroke-width="2" stroke-opacity="0.6" /><path d="M 437 203.33333333333331 l 7 -4" stroke="#D1F4FF" stroke-width="2" stroke-opacity="0.4" /><path d="M 452 191.33333333333331 l 7 4" stroke="#D1F4FF" stroke-width="2" stroke-opacity="0.6" /><path d="M 437 193.33333333333331 l 7 -4" stroke="#D1F4FF" stroke-width="2" stroke-opacity="0.4" /><path d="M 452 181.33333333333331 l 7 4" stroke="#D1F4FF" stroke-width="2" stroke-opacity="0.6" /><path d="M 437 183.33333333333331 l 7 -4" stroke="#D1F4FF" stroke-width="2" stroke-opacity="0.4" /><path d="M 452 171.33333333333331 l 7 4" stroke="#D1F4FF" stroke-width="2" stroke-opacity="0.6" /><path d="M 437 173.33333333333331 l 7 -4" stroke="#D1F4FF" stroke-width="2" stroke-opacity="0.4" /><path d="M 452 161.33333333333331 l 7 4" stroke="#D1F4FF" stroke-width="2" stroke-opacity="0.6" /><path d="M 437 163.33333333333331 l 7 -4" stroke="#D1F4FF" stroke-width="2" stroke-opacity="0.4" /><path d="M 437 153.33333333333331 l 7 -4" stroke="#D1F4FF" stroke-width="2" stroke-opacity="0.4" /><path d="M 452 141.33333333333331 l 7 4" stroke="#D1F4FF" stroke-width="2" stroke-opacity="0.6" /><path d="M 452 131.33333333333331 l 7 4" stroke="#D1F4FF" stroke-width="2" stroke-opacity="0.6" /><path d="M 437 133.33333333333331 l 7 -4" stroke="#D1F4FF" stroke-width="2" stroke-opacity="0.4" />
                     

                     <!-- Tooltip -->
                     <title>epd-carbon-compare (Python) | Stars: 0</title>
                </g>
            </a>
        

            <a href="https://github.com/zintaen/auto-work-harness" target="_blank">
                <g class="building" opacity="0">
                     <animate attributeName="opacity" values="0;1" dur="0.8s" begin="0.2s" fill="freeze" />
                     
                     <!-- Shadow (Simple Ellipse approx) -->
                     <ellipse cx="400" cy="314.80833333333334" rx="16.424999999999997" ry="8.76" fill="black" opacity="0.4" blur="2" />

                     <!-- Structure -->
                     <path d="M 389.05 294.80833333333334 l 0 20 l 10.95 5.475 l 0 -20 z" fill="url(#gradLeft-calm)" stroke="none" />
                     <path d="M 410.95 294.80833333333334 l 0 20 l -10.95 5.475 l 0 -20 z" fill="url(#gradRight-calm)" stroke="none" />
                     <path d="M 400 289.3333333333333 l 10.95 5.475 l -10.95 5.475 l -10.95 -5.475 z" fill="#D1F4FF" fill-opacity="0.9" stroke="none" />
                     
                     <!-- Glow Edge -->
                     <path d="M 389.05 294.80833333333334 l 0 20 l 10.95 5.475 l 0 -20 z" fill="none" stroke="#00C2FF" stroke-width="0.5" opacity="0.5" />
                     <path d="M 410.95 294.80833333333334 l 0 20 l -10.95 5.475 l 0 -20 z" fill="none" stroke="#00C2FF" stroke-width="0.5" opacity="0.5" />

                     <!-- Details -->
                     
                     

                     <!-- Tooltip -->
                     <title>auto-work-harness (Python) | Stars: 0</title>
                </g>
            </a>
        

            <a href="https://github.com/zintaen/harper" target="_blank">
                <g class="building" opacity="0">
                     <animate attributeName="opacity" values="0;1" dur="0.8s" begin="0.25s" fill="freeze" />
                     
                     <!-- Shadow (Simple Ellipse approx) -->
                     <ellipse cx="352" cy="316.8333333333333" rx="22.5" ry="12" fill="black" opacity="0.4" blur="2" />

                     <!-- Structure -->
                     <path d="M 337 116.83333333333331 l 0 200 l 15 7.5 l 0 -200 z" fill="url(#gradLeft-stressed)" stroke="none" />
                     <path d="M 367 116.83333333333331 l 0 200 l -15 7.5 l 0 -200 z" fill="url(#gradRight-stressed)" stroke="none" />
                     <path d="M 352 109.33333333333331 l 15 7.5 l -15 7.5 l -15 -7.5 z" fill="#FFD1E0" fill-opacity="0.9" stroke="none" />
                     
                     <!-- Glow Edge -->
                     <path d="M 337 116.83333333333331 l 0 200 l 15 7.5 l 0 -200 z" fill="none" stroke="#FF2A6D" stroke-width="0.5" opacity="0.5" />
                     <path d="M 367 116.83333333333331 l 0 200 l -15 7.5 l 0 -200 z" fill="none" stroke="#FF2A6D" stroke-width="0.5" opacity="0.5" />

                     <!-- Details -->
                     <path d="M 356 301.3333333333333 l 7 4" stroke="#FFD1E0" stroke-width="2" stroke-opacity="0.6" /><path d="M 341 303.3333333333333 l 7 -4" stroke="#FFD1E0" stroke-width="2" stroke-opacity="0.4" /><path d="M 356 291.3333333333333 l 7 4" stroke="#FFD1E0" stroke-width="2" stroke-opacity="0.6" /><path d="M 341 293.3333333333333 l 7 -4" stroke="#FFD1E0" stroke-width="2" stroke-opacity="0.4" /><path d="M 341 283.3333333333333 l 7 -4" stroke="#FFD1E0" stroke-width="2" stroke-opacity="0.4" /><path d="M 356 271.3333333333333 l 7 4" stroke="#FFD1E0" stroke-width="2" stroke-opacity="0.6" /><path d="M 356 261.3333333333333 l 7 4" stroke="#FFD1E0" stroke-width="2" stroke-opacity="0.6" /><path d="M 341 263.3333333333333 l 7 -4" stroke="#FFD1E0" stroke-width="2" stroke-opacity="0.4" /><path d="M 356 251.33333333333331 l 7 4" stroke="#FFD1E0" stroke-width="2" stroke-opacity="0.6" /><path d="M 341 253.33333333333331 l 7 -4" stroke="#FFD1E0" stroke-width="2" stroke-opacity="0.4" /><path d="M 356 241.33333333333331 l 7 4" stroke="#FFD1E0" stroke-width="2" stroke-opacity="0.6" /><path d="M 341 243.33333333333331 l 7 -4" stroke="#FFD1E0" stroke-width="2" stroke-opacity="0.4" /><path d="M 341 233.33333333333331 l 7 -4" stroke="#FFD1E0" stroke-width="2" stroke-opacity="0.4" /><path d="M 356 221.33333333333331 l 7 4" stroke="#FFD1E0" stroke-width="2" stroke-opacity="0.6" /><path d="M 356 211.33333333333331 l 7 4" stroke="#FFD1E0" stroke-width="2" stroke-opacity="0.6" /><path d="M 341 213.33333333333331 l 7 -4" stroke="#FFD1E0" stroke-width="2" stroke-opacity="0.4" /><path d="M 356 201.33333333333331 l 7 4" stroke="#FFD1E0" stroke-width="2" stroke-opacity="0.6" /><path d="M 341 203.33333333333331 l 7 -4" stroke="#FFD1E0" stroke-width="2" stroke-opacity="0.4" /><path d="M 356 191.33333333333331 l 7 4" stroke="#FFD1E0" stroke-width="2" stroke-opacity="0.6" /><path d="M 356 181.33333333333331 l 7 4" stroke="#FFD1E0" stroke-width="2" stroke-opacity="0.6" /><path d="M 356 171.33333333333331 l 7 4" stroke="#FFD1E0" stroke-width="2" stroke-opacity="0.6" /><path d="M 341 173.33333333333331 l 7 -4" stroke="#FFD1E0" stroke-width="2" stroke-opacity="0.4" /><path d="M 341 163.33333333333331 l 7 -4" stroke="#FFD1E0" stroke-width="2" stroke-opacity="0.4" /><path d="M 356 151.33333333333331 l 7 4" stroke="#FFD1E0" stroke-width="2" stroke-opacity="0.6" /><path d="M 341 153.33333333333331 l 7 -4" stroke="#FFD1E0" stroke-width="2" stroke-opacity="0.4" /><path d="M 341 143.33333333333331 l 7 -4" stroke="#FFD1E0" stroke-width="2" stroke-opacity="0.4" /><path d="M 356 131.33333333333331 l 7 4" stroke="#FFD1E0" stroke-width="2" stroke-opacity="0.6" /><path d="M 356 121.33333333333331 l 7 4" stroke="#FFD1E0" stroke-width="2" stroke-opacity="0.6" /><path d="M 341 123.33333333333331 l 7 -4" stroke="#FFD1E0" stroke-width="2" stroke-opacity="0.4" />
                     

                     <!-- Tooltip -->
                     <title>harper (null) | Stars: 0</title>
                </g>
            </a>
        

            <a href="https://github.com/zintaen/dom-defender" target="_blank">
                <g class="building" opacity="0">
                     <animate attributeName="opacity" values="0;1" dur="0.8s" begin="0.30000000000000004s" fill="freeze" />
                     
                     <!-- Shadow (Simple Ellipse approx) -->
                     <ellipse cx="472" cy="328.8333333333333" rx="22.5" ry="12" fill="black" opacity="0.4" blur="2" />

                     <!-- Structure -->
                     <path d="M 457 308.8333333333333 l 0 20 l 15 7.5 l 0 -20 z" fill="url(#gradLeft-focused)" stroke="none" />
                     <path d="M 487 308.8333333333333 l 0 20 l -15 7.5 l 0 -20 z" fill="url(#gradRight-focused)" stroke="none" />
                     <path d="M 472 301.3333333333333 l 15 7.5 l -15 7.5 l -15 -7.5 z" fill="#E0FFF1" fill-opacity="0.9" stroke="none" />
                     
                     <!-- Glow Edge -->
                     <path d="M 457 308.8333333333333 l 0 20 l 15 7.5 l 0 -20 z" fill="none" stroke="#00FF94" stroke-width="0.5" opacity="0.5" />
                     <path d="M 487 308.8333333333333 l 0 20 l -15 7.5 l 0 -20 z" fill="none" stroke="#00FF94" stroke-width="0.5" opacity="0.5" />

                     <!-- Details -->
                     
                     

                     <!-- Tooltip -->
                     <title>dom-defender (TypeScript) | Stars: 0</title>
                </g>
            </a>
        

            <a href="https://github.com/zintaen/3d-preriodic-table" target="_blank">
                <g class="building" opacity="0">
                     <animate attributeName="opacity" values="0;1" dur="0.8s" begin="0.35000000000000003s" fill="freeze" />
                     
                     <!-- Shadow (Simple Ellipse approx) -->
                     <ellipse cx="424" cy="328.8333333333333" rx="22.5" ry="12" fill="black" opacity="0.4" blur="2" />

                     <!-- Structure -->
                     <path d="M 409 298.4133333333333 l 0 30.42 l 15 7.5 l 0 -30.42 z" fill="url(#gradLeft-focused)" stroke="none" />
                     <path d="M 439 298.4133333333333 l 0 30.42 l -15 7.5 l 0 -30.42 z" fill="url(#gradRight-focused)" stroke="none" />
                     <path d="M 424 290.9133333333333 l 15 7.5 l -15 7.5 l -15 -7.5 z" fill="#E0FFF1" fill-opacity="0.9" stroke="none" />
                     
                     <!-- Glow Edge -->
                     <path d="M 409 298.4133333333333 l 0 30.42 l 15 7.5 l 0 -30.42 z" fill="none" stroke="#00FF94" stroke-width="0.5" opacity="0.5" />
                     <path d="M 439 298.4133333333333 l 0 30.42 l -15 7.5 l 0 -30.42 z" fill="none" stroke="#00FF94" stroke-width="0.5" opacity="0.5" />

                     <!-- Details -->
                     
                     

                     <!-- Tooltip -->
                     <title>3d-preriodic-table (TypeScript) | Stars: 0</title>
                </g>
            </a>
        

            <a href="https://github.com/zintaen/claude-mem" target="_blank">
                <g class="building" opacity="0">
                     <animate attributeName="opacity" values="0;1" dur="0.8s" begin="0.4s" fill="freeze" />
                     
                     <!-- Shadow (Simple Ellipse approx) -->
                     <ellipse cx="376" cy="328.8333333333333" rx="22.5" ry="12" fill="black" opacity="0.4" blur="2" />

                     <!-- Structure -->
                     <path d="M 361 128.83333333333331 l 0 200 l 15 7.5 l 0 -200 z" fill="url(#gradLeft-stressed)" stroke="none" />
                     <path d="M 391 128.83333333333331 l 0 200 l -15 7.5 l 0 -200 z" fill="url(#gradRight-stressed)" stroke="none" />
                     <path d="M 376 121.33333333333331 l 15 7.5 l -15 7.5 l -15 -7.5 z" fill="#FFD1E0" fill-opacity="0.9" stroke="none" />
                     
                     <!-- Glow Edge -->
                     <path d="M 361 128.83333333333331 l 0 200 l 15 7.5 l 0 -200 z" fill="none" stroke="#FF2A6D" stroke-width="0.5" opacity="0.5" />
                     <path d="M 391 128.83333333333331 l 0 200 l -15 7.5 l 0 -200 z" fill="none" stroke="#FF2A6D" stroke-width="0.5" opacity="0.5" />

                     <!-- Details -->
                     <path d="M 380 313.3333333333333 l 7 4" stroke="#FFD1E0" stroke-width="2" stroke-opacity="0.6" /><path d="M 365 315.3333333333333 l 7 -4" stroke="#FFD1E0" stroke-width="2" stroke-opacity="0.4" /><path d="M 380 303.3333333333333 l 7 4" stroke="#FFD1E0" stroke-width="2" stroke-opacity="0.6" /><path d="M 380 293.3333333333333 l 7 4" stroke="#FFD1E0" stroke-width="2" stroke-opacity="0.6" /><path d="M 365 295.3333333333333 l 7 -4" stroke="#FFD1E0" stroke-width="2" stroke-opacity="0.4" /><path d="M 365 285.3333333333333 l 7 -4" stroke="#FFD1E0" stroke-width="2" stroke-opacity="0.4" /><path d="M 380 273.3333333333333 l 7 4" stroke="#FFD1E0" stroke-width="2" stroke-opacity="0.6" /><path d="M 365 275.3333333333333 l 7 -4" stroke="#FFD1E0" stroke-width="2" stroke-opacity="0.4" /><path d="M 380 263.3333333333333 l 7 4" stroke="#FFD1E0" stroke-width="2" stroke-opacity="0.6" /><path d="M 365 265.3333333333333 l 7 -4" stroke="#FFD1E0" stroke-width="2" stroke-opacity="0.4" /><path d="M 380 253.33333333333331 l 7 4" stroke="#FFD1E0" stroke-width="2" stroke-opacity="0.6" /><path d="M 365 255.33333333333331 l 7 -4" stroke="#FFD1E0" stroke-width="2" stroke-opacity="0.4" /><path d="M 380 243.33333333333331 l 7 4" stroke="#FFD1E0" stroke-width="2" stroke-opacity="0.6" /><path d="M 380 233.33333333333331 l 7 4" stroke="#FFD1E0" stroke-width="2" stroke-opacity="0.6" /><path d="M 365 235.33333333333331 l 7 -4" stroke="#FFD1E0" stroke-width="2" stroke-opacity="0.4" /><path d="M 365 225.33333333333331 l 7 -4" stroke="#FFD1E0" stroke-width="2" stroke-opacity="0.4" /><path d="M 380 203.33333333333331 l 7 4" stroke="#FFD1E0" stroke-width="2" stroke-opacity="0.6" /><path d="M 365 205.33333333333331 l 7 -4" stroke="#FFD1E0" stroke-width="2" stroke-opacity="0.4" /><path d="M 365 195.33333333333331 l 7 -4" stroke="#FFD1E0" stroke-width="2" stroke-opacity="0.4" /><path d="M 380 183.33333333333331 l 7 4" stroke="#FFD1E0" stroke-width="2" stroke-opacity="0.6" /><path d="M 365 185.33333333333331 l 7 -4" stroke="#FFD1E0" stroke-width="2" stroke-opacity="0.4" /><path d="M 380 173.33333333333331 l 7 4" stroke="#FFD1E0" stroke-width="2" stroke-opacity="0.6" /><path d="M 380 163.33333333333331 l 7 4" stroke="#FFD1E0" stroke-width="2" stroke-opacity="0.6" /><path d="M 365 165.33333333333331 l 7 -4" stroke="#FFD1E0" stroke-width="2" stroke-opacity="0.4" /><path d="M 365 155.33333333333331 l 7 -4" stroke="#FFD1E0" stroke-width="2" stroke-opacity="0.4" /><path d="M 380 143.33333333333331 l 7 4" stroke="#FFD1E0" stroke-width="2" stroke-opacity="0.6" /><path d="M 365 145.33333333333331 l 7 -4" stroke="#FFD1E0" stroke-width="2" stroke-opacity="0.4" /><path d="M 380 133.33333333333331 l 7 4" stroke="#FFD1E0" stroke-width="2" stroke-opacity="0.6" /><path d="M 365 135.33333333333331 l 7 -4" stroke="#FFD1E0" stroke-width="2" stroke-opacity="0.4" />
                     

                     <!-- Tooltip -->
                     <title>claude-mem (null) | Stars: 0</title>
                </g>
            </a>
        

            <a href="https://github.com/zintaen/issue-hunter" target="_blank">
                <g class="building" opacity="0">
                     <animate attributeName="opacity" values="0;1" dur="0.8s" begin="0.45s" fill="freeze" />
                     
                     <!-- Shadow (Simple Ellipse approx) -->
                     <ellipse cx="448" cy="339.5358333333333" rx="18.607499999999998" ry="9.924" fill="black" opacity="0.4" blur="2" />

                     <!-- Structure -->
                     <path d="M 435.595 319.5358333333333 l 0 20 l 12.405 6.2025 l 0 -20 z" fill="url(#gradLeft-calm)" stroke="none" />
                     <path d="M 460.405 319.5358333333333 l 0 20 l -12.405 6.2025 l 0 -20 z" fill="url(#gradRight-calm)" stroke="none" />
                     <path d="M 448 313.3333333333333 l 12.405 6.2025 l -12.405 6.2025 l -12.405 -6.2025 z" fill="#D1F4FF" fill-opacity="0.9" stroke="none" />
                     
                     <!-- Glow Edge -->
                     <path d="M 435.595 319.5358333333333 l 0 20 l 12.405 6.2025 l 0 -20 z" fill="none" stroke="#00C2FF" stroke-width="0.5" opacity="0.5" />
                     <path d="M 460.405 319.5358333333333 l 0 20 l -12.405 6.2025 l 0 -20 z" fill="none" stroke="#00C2FF" stroke-width="0.5" opacity="0.5" />

                     <!-- Details -->
                     
                     

                     <!-- Tooltip -->
                     <title>issue-hunter (Python) | Stars: 0</title>
                </g>
            </a>
        
  </g>

  <!-- Footer -->
  <text x="770" y="580" text-anchor="end" fill="rgba(255,255,255,0.4)" font-family="Courier New" font-size="10">GENERATED BY REPOVERSE</text>
</svg>